<mxfile host="app.diagrams.net" agent="Mozilla/5.0 (Windows NT 10.0; Win64; x64) AppleWebKit/537.36 (KHTML, like Gecko) Chrome/128.0.0.0 Safari/537.36 Edg/128.0.0.0" version="24.7.6">
  <diagram name="Trang-1" id="Bt6A5V-XEVuFtGxONGSO">
    <mxGraphModel dx="1042" dy="614" grid="1" gridSize="10" guides="1" tooltips="1" connect="1" arrows="1" fold="1" page="1" pageScale="1" pageWidth="827" pageHeight="1169" math="0" shadow="0">
      <root>
        <mxCell id="0" />
        <mxCell id="1" parent="0" />
        <mxCell id="O5-Aam5vRArmxlNxaEpb-7" value="n" style="rounded=0;orthogonalLoop=1;jettySize=auto;html=1;endArrow=none;endFill=0;" parent="1" source="O5-Aam5vRArmxlNxaEpb-226" target="O5-Aam5vRArmxlNxaEpb-36" edge="1">
          <mxGeometry x="0.8947" relative="1" as="geometry">
            <mxPoint x="615" y="117.5" as="sourcePoint" />
            <mxPoint x="455" y="117.5" as="targetPoint" />
            <mxPoint as="offset" />
          </mxGeometry>
        </mxCell>
        <mxCell id="O5-Aam5vRArmxlNxaEpb-34" value="Role name" style="ellipse;whiteSpace=wrap;html=1;" parent="1" vertex="1">
          <mxGeometry x="70" y="240" width="90" height="50" as="geometry" />
        </mxCell>
        <mxCell id="O5-Aam5vRArmxlNxaEpb-49" style="edgeStyle=none;shape=connector;rounded=0;orthogonalLoop=1;jettySize=auto;html=1;strokeColor=default;align=center;verticalAlign=middle;fontFamily=Helvetica;fontSize=11;fontColor=default;labelBackgroundColor=default;endArrow=none;endFill=0;" parent="1" source="O5-Aam5vRArmxlNxaEpb-35" target="O5-Aam5vRArmxlNxaEpb-34" edge="1">
          <mxGeometry relative="1" as="geometry" />
        </mxCell>
        <mxCell id="O5-Aam5vRArmxlNxaEpb-55" style="edgeStyle=none;shape=connector;rounded=0;orthogonalLoop=1;jettySize=auto;html=1;strokeColor=default;align=center;verticalAlign=middle;fontFamily=Helvetica;fontSize=11;fontColor=default;labelBackgroundColor=default;endArrow=none;endFill=0;" parent="1" source="O5-Aam5vRArmxlNxaEpb-35" target="O5-Aam5vRArmxlNxaEpb-52" edge="1">
          <mxGeometry relative="1" as="geometry" />
        </mxCell>
        <mxCell id="uetQmwVORCMHqKW5TT_V-110" style="edgeStyle=none;shape=connector;rounded=0;orthogonalLoop=1;jettySize=auto;html=1;strokeColor=default;align=center;verticalAlign=middle;fontFamily=Helvetica;fontSize=11;fontColor=default;labelBackgroundColor=default;endArrow=none;endFill=0;" parent="1" source="O5-Aam5vRArmxlNxaEpb-35" target="O5-Aam5vRArmxlNxaEpb-222" edge="1">
          <mxGeometry relative="1" as="geometry" />
        </mxCell>
        <mxCell id="uetQmwVORCMHqKW5TT_V-111" value="1" style="edgeLabel;html=1;align=center;verticalAlign=middle;resizable=0;points=[];fontFamily=Helvetica;fontSize=11;fontColor=default;labelBackgroundColor=default;" parent="uetQmwVORCMHqKW5TT_V-110" vertex="1" connectable="0">
          <mxGeometry x="-0.6296" y="1" relative="1" as="geometry">
            <mxPoint as="offset" />
          </mxGeometry>
        </mxCell>
        <mxCell id="O5-Aam5vRArmxlNxaEpb-35" value="&lt;span style=&quot;font-size: 12px; background-color: rgb(251, 251, 251);&quot;&gt;Role&lt;/span&gt;" style="rounded=1;whiteSpace=wrap;html=1;fontFamily=Helvetica;fontSize=11;fontColor=default;labelBackgroundColor=default;" parent="1" vertex="1">
          <mxGeometry x="10" y="300" width="100" height="50" as="geometry" />
        </mxCell>
        <mxCell id="O5-Aam5vRArmxlNxaEpb-57" style="edgeStyle=none;shape=connector;rounded=0;orthogonalLoop=1;jettySize=auto;html=1;strokeColor=default;align=center;verticalAlign=middle;fontFamily=Helvetica;fontSize=11;fontColor=default;labelBackgroundColor=default;endArrow=none;endFill=0;" parent="1" source="O5-Aam5vRArmxlNxaEpb-36" target="O5-Aam5vRArmxlNxaEpb-56" edge="1">
          <mxGeometry relative="1" as="geometry" />
        </mxCell>
        <mxCell id="O5-Aam5vRArmxlNxaEpb-59" style="edgeStyle=none;shape=connector;rounded=0;orthogonalLoop=1;jettySize=auto;html=1;strokeColor=default;align=center;verticalAlign=middle;fontFamily=Helvetica;fontSize=11;fontColor=default;labelBackgroundColor=default;endArrow=none;endFill=0;" parent="1" source="O5-Aam5vRArmxlNxaEpb-36" target="O5-Aam5vRArmxlNxaEpb-58" edge="1">
          <mxGeometry relative="1" as="geometry" />
        </mxCell>
        <mxCell id="O5-Aam5vRArmxlNxaEpb-36" value="&lt;span style=&quot;font-size: 12px; background-color: rgb(251, 251, 251);&quot;&gt;UserRole&lt;/span&gt;" style="rounded=1;whiteSpace=wrap;html=1;fontFamily=Helvetica;fontSize=11;fontColor=default;labelBackgroundColor=default;" parent="1" vertex="1">
          <mxGeometry x="10" y="90" width="100" height="50" as="geometry" />
        </mxCell>
        <mxCell id="O5-Aam5vRArmxlNxaEpb-63" style="edgeStyle=none;shape=connector;rounded=0;orthogonalLoop=1;jettySize=auto;html=1;strokeColor=default;align=center;verticalAlign=middle;fontFamily=Helvetica;fontSize=11;fontColor=default;labelBackgroundColor=default;endArrow=none;endFill=0;" parent="1" source="O5-Aam5vRArmxlNxaEpb-37" target="O5-Aam5vRArmxlNxaEpb-62" edge="1">
          <mxGeometry relative="1" as="geometry" />
        </mxCell>
        <mxCell id="O5-Aam5vRArmxlNxaEpb-68" style="edgeStyle=none;shape=connector;rounded=0;orthogonalLoop=1;jettySize=auto;html=1;strokeColor=default;align=center;verticalAlign=middle;fontFamily=Helvetica;fontSize=11;fontColor=default;labelBackgroundColor=default;endArrow=none;endFill=0;" parent="1" source="O5-Aam5vRArmxlNxaEpb-37" target="O5-Aam5vRArmxlNxaEpb-67" edge="1">
          <mxGeometry relative="1" as="geometry" />
        </mxCell>
        <mxCell id="O5-Aam5vRArmxlNxaEpb-72" style="edgeStyle=none;shape=connector;rounded=0;orthogonalLoop=1;jettySize=auto;html=1;strokeColor=default;align=center;verticalAlign=middle;fontFamily=Helvetica;fontSize=11;fontColor=default;labelBackgroundColor=default;endArrow=none;endFill=0;" parent="1" source="O5-Aam5vRArmxlNxaEpb-37" target="O5-Aam5vRArmxlNxaEpb-71" edge="1">
          <mxGeometry relative="1" as="geometry" />
        </mxCell>
        <mxCell id="O5-Aam5vRArmxlNxaEpb-75" style="edgeStyle=none;shape=connector;rounded=0;orthogonalLoop=1;jettySize=auto;html=1;strokeColor=default;align=center;verticalAlign=middle;fontFamily=Helvetica;fontSize=11;fontColor=default;labelBackgroundColor=default;endArrow=none;endFill=0;" parent="1" source="O5-Aam5vRArmxlNxaEpb-37" target="O5-Aam5vRArmxlNxaEpb-73" edge="1">
          <mxGeometry relative="1" as="geometry" />
        </mxCell>
        <mxCell id="uetQmwVORCMHqKW5TT_V-33" style="edgeStyle=none;shape=connector;rounded=0;orthogonalLoop=1;jettySize=auto;html=1;strokeColor=default;align=center;verticalAlign=middle;fontFamily=Helvetica;fontSize=11;fontColor=default;labelBackgroundColor=default;endArrow=none;endFill=0;" parent="1" source="O5-Aam5vRArmxlNxaEpb-37" target="uetQmwVORCMHqKW5TT_V-30" edge="1">
          <mxGeometry relative="1" as="geometry" />
        </mxCell>
        <mxCell id="uetQmwVORCMHqKW5TT_V-35" value="1" style="edgeLabel;html=1;align=center;verticalAlign=middle;resizable=0;points=[];fontFamily=Helvetica;fontSize=11;fontColor=default;labelBackgroundColor=default;" parent="uetQmwVORCMHqKW5TT_V-33" vertex="1" connectable="0">
          <mxGeometry x="-0.6416" relative="1" as="geometry">
            <mxPoint x="-2" as="offset" />
          </mxGeometry>
        </mxCell>
        <mxCell id="O5-Aam5vRArmxlNxaEpb-37" value="&lt;span style=&quot;font-size: 12px; background-color: rgb(251, 251, 251);&quot;&gt;Employee&lt;/span&gt;" style="rounded=1;whiteSpace=wrap;html=1;fontFamily=Helvetica;fontSize=11;fontColor=default;labelBackgroundColor=default;" parent="1" vertex="1">
          <mxGeometry x="282.4" y="310" width="100" height="50" as="geometry" />
        </mxCell>
        <mxCell id="O5-Aam5vRArmxlNxaEpb-182" style="edgeStyle=none;shape=connector;rounded=0;orthogonalLoop=1;jettySize=auto;html=1;strokeColor=default;align=center;verticalAlign=middle;fontFamily=Helvetica;fontSize=11;fontColor=default;labelBackgroundColor=default;endArrow=none;endFill=0;" parent="1" source="O5-Aam5vRArmxlNxaEpb-42" target="O5-Aam5vRArmxlNxaEpb-181" edge="1">
          <mxGeometry relative="1" as="geometry" />
        </mxCell>
        <mxCell id="O5-Aam5vRArmxlNxaEpb-184" style="edgeStyle=none;shape=connector;rounded=0;orthogonalLoop=1;jettySize=auto;html=1;strokeColor=default;align=center;verticalAlign=middle;fontFamily=Helvetica;fontSize=11;fontColor=default;labelBackgroundColor=default;endArrow=none;endFill=0;" parent="1" source="O5-Aam5vRArmxlNxaEpb-42" target="O5-Aam5vRArmxlNxaEpb-183" edge="1">
          <mxGeometry relative="1" as="geometry" />
        </mxCell>
        <mxCell id="O5-Aam5vRArmxlNxaEpb-214" style="edgeStyle=none;shape=connector;rounded=0;orthogonalLoop=1;jettySize=auto;html=1;strokeColor=default;align=center;verticalAlign=middle;fontFamily=Helvetica;fontSize=11;fontColor=default;labelBackgroundColor=default;endArrow=none;endFill=0;" parent="1" source="O5-Aam5vRArmxlNxaEpb-42" target="O5-Aam5vRArmxlNxaEpb-213" edge="1">
          <mxGeometry relative="1" as="geometry" />
        </mxCell>
        <mxCell id="O5-Aam5vRArmxlNxaEpb-42" value="&lt;span style=&quot;font-size: 12px; background-color: rgb(251, 251, 251);&quot;&gt;Payroll&lt;/span&gt;" style="rounded=1;whiteSpace=wrap;html=1;fontFamily=Helvetica;fontSize=11;fontColor=default;labelBackgroundColor=default;" parent="1" vertex="1">
          <mxGeometry x="594.9999999999999" y="830" width="100" height="50" as="geometry" />
        </mxCell>
        <mxCell id="O5-Aam5vRArmxlNxaEpb-121" style="edgeStyle=none;shape=connector;rounded=0;orthogonalLoop=1;jettySize=auto;html=1;strokeColor=default;align=center;verticalAlign=middle;fontFamily=Helvetica;fontSize=11;fontColor=default;labelBackgroundColor=default;endArrow=none;endFill=0;" parent="1" source="O5-Aam5vRArmxlNxaEpb-43" target="O5-Aam5vRArmxlNxaEpb-120" edge="1">
          <mxGeometry relative="1" as="geometry" />
        </mxCell>
        <mxCell id="O5-Aam5vRArmxlNxaEpb-122" style="edgeStyle=none;shape=connector;rounded=0;orthogonalLoop=1;jettySize=auto;html=1;strokeColor=default;align=center;verticalAlign=middle;fontFamily=Helvetica;fontSize=11;fontColor=default;labelBackgroundColor=default;endArrow=none;endFill=0;" parent="1" source="O5-Aam5vRArmxlNxaEpb-43" target="O5-Aam5vRArmxlNxaEpb-119" edge="1">
          <mxGeometry relative="1" as="geometry" />
        </mxCell>
        <mxCell id="O5-Aam5vRArmxlNxaEpb-356" style="edgeStyle=none;shape=connector;rounded=0;orthogonalLoop=1;jettySize=auto;html=1;strokeColor=default;align=center;verticalAlign=middle;fontFamily=Helvetica;fontSize=11;fontColor=default;labelBackgroundColor=default;endArrow=none;endFill=0;" parent="1" source="O5-Aam5vRArmxlNxaEpb-43" target="O5-Aam5vRArmxlNxaEpb-355" edge="1">
          <mxGeometry relative="1" as="geometry" />
        </mxCell>
        <mxCell id="O5-Aam5vRArmxlNxaEpb-358" style="edgeStyle=none;shape=connector;rounded=0;orthogonalLoop=1;jettySize=auto;html=1;strokeColor=default;align=center;verticalAlign=middle;fontFamily=Helvetica;fontSize=11;fontColor=default;labelBackgroundColor=default;endArrow=none;endFill=0;" parent="1" source="O5-Aam5vRArmxlNxaEpb-43" target="O5-Aam5vRArmxlNxaEpb-357" edge="1">
          <mxGeometry relative="1" as="geometry" />
        </mxCell>
        <mxCell id="O5-Aam5vRArmxlNxaEpb-367" style="edgeStyle=none;shape=connector;rounded=0;orthogonalLoop=1;jettySize=auto;html=1;strokeColor=default;align=center;verticalAlign=middle;fontFamily=Helvetica;fontSize=11;fontColor=default;labelBackgroundColor=default;endArrow=none;endFill=0;" parent="1" source="O5-Aam5vRArmxlNxaEpb-368" target="O5-Aam5vRArmxlNxaEpb-288" edge="1">
          <mxGeometry relative="1" as="geometry" />
        </mxCell>
        <mxCell id="O5-Aam5vRArmxlNxaEpb-371" value="1" style="edgeLabel;html=1;align=center;verticalAlign=middle;resizable=0;points=[];fontFamily=Helvetica;fontSize=11;fontColor=default;labelBackgroundColor=default;" parent="O5-Aam5vRArmxlNxaEpb-367" vertex="1" connectable="0">
          <mxGeometry x="0.8943" relative="1" as="geometry">
            <mxPoint y="-8" as="offset" />
          </mxGeometry>
        </mxCell>
        <mxCell id="uetQmwVORCMHqKW5TT_V-100" value="1" style="edgeLabel;html=1;align=center;verticalAlign=middle;resizable=0;points=[];fontFamily=Helvetica;fontSize=11;fontColor=default;labelBackgroundColor=default;" parent="O5-Aam5vRArmxlNxaEpb-367" vertex="1" connectable="0">
          <mxGeometry x="0.3122" y="1" relative="1" as="geometry">
            <mxPoint as="offset" />
          </mxGeometry>
        </mxCell>
        <mxCell id="O5-Aam5vRArmxlNxaEpb-373" style="edgeStyle=none;shape=connector;rounded=0;orthogonalLoop=1;jettySize=auto;html=1;strokeColor=default;align=center;verticalAlign=middle;fontFamily=Helvetica;fontSize=11;fontColor=default;labelBackgroundColor=default;endArrow=none;endFill=0;" parent="1" source="O5-Aam5vRArmxlNxaEpb-43" target="O5-Aam5vRArmxlNxaEpb-372" edge="1">
          <mxGeometry relative="1" as="geometry" />
        </mxCell>
        <mxCell id="O5-Aam5vRArmxlNxaEpb-43" value="&lt;span style=&quot;font-size: 12px; background-color: rgb(251, 251, 251);&quot;&gt;Penalty&lt;/span&gt;" style="rounded=1;whiteSpace=wrap;html=1;fontFamily=Helvetica;fontSize=11;fontColor=default;labelBackgroundColor=default;" parent="1" vertex="1">
          <mxGeometry x="1159.25" y="830.0000000000002" width="100" height="50" as="geometry" />
        </mxCell>
        <mxCell id="O5-Aam5vRArmxlNxaEpb-52" value="Role Id" style="ellipse;whiteSpace=wrap;html=1;fontStyle=5" parent="1" vertex="1">
          <mxGeometry x="14.75" y="360" width="90" height="50" as="geometry" />
        </mxCell>
        <mxCell id="O5-Aam5vRArmxlNxaEpb-56" value="Role Id" style="ellipse;whiteSpace=wrap;html=1;fontStyle=5" parent="1" vertex="1">
          <mxGeometry x="84.75" y="148.75" width="90" height="50" as="geometry" />
        </mxCell>
        <mxCell id="O5-Aam5vRArmxlNxaEpb-58" value="User Id" style="ellipse;whiteSpace=wrap;html=1;fontStyle=5" parent="1" vertex="1">
          <mxGeometry x="67" y="30" width="90" height="50" as="geometry" />
        </mxCell>
        <mxCell id="O5-Aam5vRArmxlNxaEpb-62" value="Employee name" style="ellipse;whiteSpace=wrap;html=1;fontStyle=0" parent="1" vertex="1">
          <mxGeometry x="382.4" y="362.5" width="90" height="50" as="geometry" />
        </mxCell>
        <mxCell id="O5-Aam5vRArmxlNxaEpb-67" value="Phone number" style="ellipse;whiteSpace=wrap;html=1;fontStyle=0" parent="1" vertex="1">
          <mxGeometry x="382.4" y="280" width="90" height="50" as="geometry" />
        </mxCell>
        <mxCell id="O5-Aam5vRArmxlNxaEpb-71" value="Start date" style="ellipse;whiteSpace=wrap;html=1;fontStyle=0" parent="1" vertex="1">
          <mxGeometry x="189.75" y="330" width="90" height="50" as="geometry" />
        </mxCell>
        <mxCell id="O5-Aam5vRArmxlNxaEpb-73" value="Quite date" style="ellipse;whiteSpace=wrap;html=1;fontStyle=0" parent="1" vertex="1">
          <mxGeometry x="270" y="380" width="90" height="50" as="geometry" />
        </mxCell>
        <mxCell id="O5-Aam5vRArmxlNxaEpb-80" style="edgeStyle=none;shape=connector;rounded=0;orthogonalLoop=1;jettySize=auto;html=1;strokeColor=default;align=center;verticalAlign=middle;fontFamily=Helvetica;fontSize=11;fontColor=default;labelBackgroundColor=default;endArrow=none;endFill=0;" parent="1" source="O5-Aam5vRArmxlNxaEpb-229" target="O5-Aam5vRArmxlNxaEpb-37" edge="1">
          <mxGeometry relative="1" as="geometry" />
        </mxCell>
        <mxCell id="O5-Aam5vRArmxlNxaEpb-84" value="0,1" style="edgeLabel;html=1;align=center;verticalAlign=middle;resizable=0;points=[];fontFamily=Helvetica;fontSize=11;fontColor=default;labelBackgroundColor=default;" parent="O5-Aam5vRArmxlNxaEpb-80" vertex="1" connectable="0">
          <mxGeometry x="0.7754" y="2" relative="1" as="geometry">
            <mxPoint as="offset" />
          </mxGeometry>
        </mxCell>
        <mxCell id="O5-Aam5vRArmxlNxaEpb-94" style="edgeStyle=none;shape=connector;rounded=0;orthogonalLoop=1;jettySize=auto;html=1;strokeColor=default;align=center;verticalAlign=middle;fontFamily=Helvetica;fontSize=11;fontColor=default;labelBackgroundColor=default;endArrow=none;endFill=0;" parent="1" source="O5-Aam5vRArmxlNxaEpb-79" target="O5-Aam5vRArmxlNxaEpb-90" edge="1">
          <mxGeometry relative="1" as="geometry" />
        </mxCell>
        <mxCell id="O5-Aam5vRArmxlNxaEpb-399" style="edgeStyle=none;shape=connector;rounded=0;orthogonalLoop=1;jettySize=auto;html=1;strokeColor=default;align=center;verticalAlign=middle;fontFamily=Helvetica;fontSize=11;fontColor=default;labelBackgroundColor=default;endArrow=none;endFill=0;" parent="1" source="O5-Aam5vRArmxlNxaEpb-79" target="O5-Aam5vRArmxlNxaEpb-398" edge="1">
          <mxGeometry relative="1" as="geometry" />
        </mxCell>
        <mxCell id="uetQmwVORCMHqKW5TT_V-108" style="edgeStyle=none;shape=connector;rounded=0;orthogonalLoop=1;jettySize=auto;html=1;strokeColor=default;align=center;verticalAlign=middle;fontFamily=Helvetica;fontSize=11;fontColor=default;labelBackgroundColor=default;endArrow=none;endFill=0;" parent="1" source="O5-Aam5vRArmxlNxaEpb-79" target="O5-Aam5vRArmxlNxaEpb-229" edge="1">
          <mxGeometry relative="1" as="geometry" />
        </mxCell>
        <mxCell id="uetQmwVORCMHqKW5TT_V-109" value="1" style="edgeLabel;html=1;align=center;verticalAlign=middle;resizable=0;points=[];fontFamily=Helvetica;fontSize=11;fontColor=default;labelBackgroundColor=default;" parent="uetQmwVORCMHqKW5TT_V-108" vertex="1" connectable="0">
          <mxGeometry x="-0.8086" relative="1" as="geometry">
            <mxPoint x="-2" y="3" as="offset" />
          </mxGeometry>
        </mxCell>
        <mxCell id="O5-Aam5vRArmxlNxaEpb-79" value="&lt;span style=&quot;font-size: 12px; background-color: rgb(251, 251, 251);&quot;&gt;User&lt;/span&gt;" style="rounded=1;whiteSpace=wrap;html=1;fontFamily=Helvetica;fontSize=11;fontColor=default;labelBackgroundColor=default;" parent="1" vertex="1">
          <mxGeometry x="282.15" y="90" width="100" height="50" as="geometry" />
        </mxCell>
        <mxCell id="O5-Aam5vRArmxlNxaEpb-102" style="edgeStyle=none;shape=connector;rounded=0;orthogonalLoop=1;jettySize=auto;html=1;strokeColor=default;align=center;verticalAlign=middle;fontFamily=Helvetica;fontSize=11;fontColor=default;labelBackgroundColor=default;endArrow=none;endFill=0;" parent="1" source="O5-Aam5vRArmxlNxaEpb-85" target="O5-Aam5vRArmxlNxaEpb-100" edge="1">
          <mxGeometry relative="1" as="geometry" />
        </mxCell>
        <mxCell id="O5-Aam5vRArmxlNxaEpb-112" style="edgeStyle=none;shape=connector;rounded=0;orthogonalLoop=1;jettySize=auto;html=1;strokeColor=default;align=center;verticalAlign=middle;fontFamily=Helvetica;fontSize=11;fontColor=default;labelBackgroundColor=default;endArrow=none;endFill=0;" parent="1" source="O5-Aam5vRArmxlNxaEpb-237" target="O5-Aam5vRArmxlNxaEpb-42" edge="1">
          <mxGeometry relative="1" as="geometry" />
        </mxCell>
        <mxCell id="O5-Aam5vRArmxlNxaEpb-113" value="n" style="edgeLabel;html=1;align=center;verticalAlign=middle;resizable=0;points=[];fontFamily=Helvetica;fontSize=11;fontColor=default;labelBackgroundColor=default;" parent="O5-Aam5vRArmxlNxaEpb-112" vertex="1" connectable="0">
          <mxGeometry x="0.72" y="2" relative="1" as="geometry">
            <mxPoint as="offset" />
          </mxGeometry>
        </mxCell>
        <mxCell id="O5-Aam5vRArmxlNxaEpb-168" style="edgeStyle=none;shape=connector;rounded=0;orthogonalLoop=1;jettySize=auto;html=1;strokeColor=default;align=center;verticalAlign=middle;fontFamily=Helvetica;fontSize=11;fontColor=default;labelBackgroundColor=default;endArrow=none;endFill=0;" parent="1" source="O5-Aam5vRArmxlNxaEpb-85" target="O5-Aam5vRArmxlNxaEpb-167" edge="1">
          <mxGeometry relative="1" as="geometry" />
        </mxCell>
        <mxCell id="O5-Aam5vRArmxlNxaEpb-169" style="edgeStyle=none;shape=connector;rounded=0;orthogonalLoop=1;jettySize=auto;html=1;strokeColor=default;align=center;verticalAlign=middle;fontFamily=Helvetica;fontSize=11;fontColor=default;labelBackgroundColor=default;endArrow=none;endFill=0;" parent="1" source="O5-Aam5vRArmxlNxaEpb-85" target="O5-Aam5vRArmxlNxaEpb-154" edge="1">
          <mxGeometry relative="1" as="geometry" />
        </mxCell>
        <mxCell id="O5-Aam5vRArmxlNxaEpb-385" style="edgeStyle=none;shape=connector;rounded=0;orthogonalLoop=1;jettySize=auto;html=1;strokeColor=default;align=center;verticalAlign=middle;fontFamily=Helvetica;fontSize=11;fontColor=default;labelBackgroundColor=default;endArrow=none;endFill=0;" parent="1" source="O5-Aam5vRArmxlNxaEpb-394" target="O5-Aam5vRArmxlNxaEpb-384" edge="1">
          <mxGeometry relative="1" as="geometry">
            <mxPoint x="575.0049979600162" y="694.9249979600163" as="sourcePoint" />
          </mxGeometry>
        </mxCell>
        <mxCell id="O5-Aam5vRArmxlNxaEpb-397" value="0,n" style="edgeLabel;html=1;align=center;verticalAlign=middle;resizable=0;points=[];fontFamily=Helvetica;fontSize=11;fontColor=default;labelBackgroundColor=default;" parent="O5-Aam5vRArmxlNxaEpb-385" vertex="1" connectable="0">
          <mxGeometry x="0.762" y="3" relative="1" as="geometry">
            <mxPoint x="9" y="-3" as="offset" />
          </mxGeometry>
        </mxCell>
        <mxCell id="uetQmwVORCMHqKW5TT_V-83" style="edgeStyle=none;shape=connector;rounded=0;orthogonalLoop=1;jettySize=auto;html=1;strokeColor=default;align=center;verticalAlign=middle;fontFamily=Helvetica;fontSize=11;fontColor=default;labelBackgroundColor=default;endArrow=none;endFill=0;" parent="1" source="uetQmwVORCMHqKW5TT_V-84" target="uetQmwVORCMHqKW5TT_V-72" edge="1">
          <mxGeometry relative="1" as="geometry" />
        </mxCell>
        <mxCell id="uetQmwVORCMHqKW5TT_V-106" value="1" style="edgeLabel;html=1;align=center;verticalAlign=middle;resizable=0;points=[];fontFamily=Helvetica;fontSize=11;fontColor=default;labelBackgroundColor=default;" parent="uetQmwVORCMHqKW5TT_V-83" vertex="1" connectable="0">
          <mxGeometry x="0.6381" relative="1" as="geometry">
            <mxPoint as="offset" />
          </mxGeometry>
        </mxCell>
        <mxCell id="O5-Aam5vRArmxlNxaEpb-85" value="&lt;span style=&quot;font-size: 12px; background-color: rgb(251, 251, 251);&quot;&gt;Employee Wage&lt;/span&gt;" style="rounded=1;whiteSpace=wrap;html=1;fontFamily=Helvetica;fontSize=11;fontColor=default;labelBackgroundColor=default;" parent="1" vertex="1">
          <mxGeometry x="595" y="669.6700000000001" width="100" height="50" as="geometry" />
        </mxCell>
        <mxCell id="O5-Aam5vRArmxlNxaEpb-92" style="edgeStyle=none;shape=connector;rounded=0;orthogonalLoop=1;jettySize=auto;html=1;strokeColor=default;align=center;verticalAlign=middle;fontFamily=Helvetica;fontSize=11;fontColor=default;labelBackgroundColor=default;endArrow=none;endFill=0;" parent="1" source="O5-Aam5vRArmxlNxaEpb-89" target="O5-Aam5vRArmxlNxaEpb-79" edge="1">
          <mxGeometry relative="1" as="geometry" />
        </mxCell>
        <mxCell id="O5-Aam5vRArmxlNxaEpb-89" value="User Id" style="ellipse;whiteSpace=wrap;html=1;fontStyle=5" parent="1" vertex="1">
          <mxGeometry x="217.15" y="40" width="90" height="50" as="geometry" />
        </mxCell>
        <mxCell id="O5-Aam5vRArmxlNxaEpb-90" value="Password" style="ellipse;whiteSpace=wrap;html=1;fontStyle=0" parent="1" vertex="1">
          <mxGeometry x="224.75" y="148.75" width="90" height="50" as="geometry" />
        </mxCell>
        <mxCell id="O5-Aam5vRArmxlNxaEpb-93" style="edgeStyle=none;shape=connector;rounded=0;orthogonalLoop=1;jettySize=auto;html=1;strokeColor=default;align=center;verticalAlign=middle;fontFamily=Helvetica;fontSize=11;fontColor=default;labelBackgroundColor=default;endArrow=none;endFill=0;" parent="1" source="O5-Aam5vRArmxlNxaEpb-99" target="O5-Aam5vRArmxlNxaEpb-79" edge="1">
          <mxGeometry relative="1" as="geometry">
            <mxPoint x="366.26515930708547" y="61.30705720105152" as="sourcePoint" />
          </mxGeometry>
        </mxCell>
        <mxCell id="O5-Aam5vRArmxlNxaEpb-98" style="edgeStyle=none;shape=connector;rounded=0;orthogonalLoop=1;jettySize=auto;html=1;strokeColor=default;align=center;verticalAlign=middle;fontFamily=Helvetica;fontSize=11;fontColor=default;labelBackgroundColor=default;endArrow=none;endFill=0;" parent="1" source="O5-Aam5vRArmxlNxaEpb-97" target="O5-Aam5vRArmxlNxaEpb-37" edge="1">
          <mxGeometry relative="1" as="geometry" />
        </mxCell>
        <mxCell id="O5-Aam5vRArmxlNxaEpb-97" value="Employee Id" style="ellipse;whiteSpace=wrap;html=1;fontStyle=5" parent="1" vertex="1">
          <mxGeometry x="217.15" y="260" width="90" height="50" as="geometry" />
        </mxCell>
        <mxCell id="O5-Aam5vRArmxlNxaEpb-99" value="User name" style="ellipse;whiteSpace=wrap;html=1;fontStyle=0" parent="1" vertex="1">
          <mxGeometry x="330" y="30" width="90" height="50" as="geometry" />
        </mxCell>
        <mxCell id="O5-Aam5vRArmxlNxaEpb-100" value="Wage Id" style="ellipse;whiteSpace=wrap;html=1;fontStyle=5" parent="1" vertex="1">
          <mxGeometry x="510" y="709.6700000000001" width="90" height="50" as="geometry" />
        </mxCell>
        <mxCell id="O5-Aam5vRArmxlNxaEpb-119" value="Penalty fee" style="ellipse;whiteSpace=wrap;html=1;fontStyle=0" parent="1" vertex="1">
          <mxGeometry x="1074.25" y="792.1700000000001" width="90" height="50" as="geometry" />
        </mxCell>
        <mxCell id="O5-Aam5vRArmxlNxaEpb-120" value="Panlty Id" style="ellipse;whiteSpace=wrap;html=1;fontStyle=5" parent="1" vertex="1">
          <mxGeometry x="1260" y="859.6700000000001" width="90" height="50" as="geometry" />
        </mxCell>
        <mxCell id="O5-Aam5vRArmxlNxaEpb-148" style="edgeStyle=none;shape=connector;rounded=0;orthogonalLoop=1;jettySize=auto;html=1;strokeColor=default;align=center;verticalAlign=middle;fontFamily=Helvetica;fontSize=11;fontColor=default;labelBackgroundColor=default;endArrow=none;endFill=0;" parent="1" source="O5-Aam5vRArmxlNxaEpb-142" target="O5-Aam5vRArmxlNxaEpb-147" edge="1">
          <mxGeometry relative="1" as="geometry" />
        </mxCell>
        <mxCell id="O5-Aam5vRArmxlNxaEpb-142" value="&lt;span style=&quot;font-size: 12px; background-color: rgb(251, 251, 251);&quot;&gt;Work schedule&lt;/span&gt;" style="rounded=1;whiteSpace=wrap;html=1;fontFamily=Helvetica;fontSize=11;fontColor=default;labelBackgroundColor=default;" parent="1" vertex="1">
          <mxGeometry x="855" y="310.00000000000006" width="100" height="50" as="geometry" />
        </mxCell>
        <mxCell id="O5-Aam5vRArmxlNxaEpb-147" value="&lt;span style=&quot;font-weight: 400;&quot;&gt;Employee-&lt;/span&gt;&lt;span style=&quot;font-weight: 400;&quot;&gt;Employee role Id&lt;/span&gt;" style="ellipse;whiteSpace=wrap;html=1;fontStyle=5" parent="1" vertex="1">
          <mxGeometry x="910" y="260.00000000000006" width="90" height="50" as="geometry" />
        </mxCell>
        <mxCell id="O5-Aam5vRArmxlNxaEpb-154" value="Pay frequency" style="ellipse;whiteSpace=wrap;html=1;fontStyle=0" parent="1" vertex="1">
          <mxGeometry x="710" y="659.6700000000001" width="90" height="50" as="geometry" />
        </mxCell>
        <mxCell id="O5-Aam5vRArmxlNxaEpb-167" value="Base salary" style="ellipse;whiteSpace=wrap;html=1;fontStyle=0" parent="1" vertex="1">
          <mxGeometry x="685.25" y="719.6700000000001" width="90" height="50" as="geometry" />
        </mxCell>
        <mxCell id="O5-Aam5vRArmxlNxaEpb-181" value="Payroll Id" style="ellipse;whiteSpace=wrap;html=1;fontStyle=5" parent="1" vertex="1">
          <mxGeometry x="685.2499999999999" y="779.67" width="90" height="50" as="geometry" />
        </mxCell>
        <mxCell id="O5-Aam5vRArmxlNxaEpb-183" value="Date" style="ellipse;whiteSpace=wrap;html=1;fontStyle=0" parent="1" vertex="1">
          <mxGeometry x="495.2499999999999" y="842.17" width="90" height="50" as="geometry" />
        </mxCell>
        <mxCell id="O5-Aam5vRArmxlNxaEpb-213" value="Total" style="ellipse;whiteSpace=wrap;html=1;fontStyle=0" parent="1" vertex="1">
          <mxGeometry x="699.9999999999999" y="840" width="90" height="50" as="geometry" />
        </mxCell>
        <mxCell id="O5-Aam5vRArmxlNxaEpb-215" style="edgeStyle=none;shape=connector;rounded=0;orthogonalLoop=1;jettySize=auto;html=1;exitX=1;exitY=0.5;exitDx=0;exitDy=0;strokeColor=default;align=center;verticalAlign=middle;fontFamily=Helvetica;fontSize=11;fontColor=default;labelBackgroundColor=default;endArrow=none;endFill=0;" parent="1" source="O5-Aam5vRArmxlNxaEpb-213" target="O5-Aam5vRArmxlNxaEpb-213" edge="1">
          <mxGeometry relative="1" as="geometry" />
        </mxCell>
        <mxCell id="O5-Aam5vRArmxlNxaEpb-223" value="" style="edgeStyle=none;shape=connector;rounded=0;orthogonalLoop=1;jettySize=auto;html=1;strokeColor=default;align=center;verticalAlign=middle;fontFamily=Helvetica;fontSize=11;fontColor=default;labelBackgroundColor=default;endArrow=none;endFill=0;" parent="1" source="O5-Aam5vRArmxlNxaEpb-36" target="O5-Aam5vRArmxlNxaEpb-222" edge="1">
          <mxGeometry relative="1" as="geometry">
            <mxPoint x="60" y="90" as="sourcePoint" />
            <mxPoint x="60" y="20" as="targetPoint" />
          </mxGeometry>
        </mxCell>
        <mxCell id="O5-Aam5vRArmxlNxaEpb-225" value="n" style="edgeLabel;html=1;align=center;verticalAlign=middle;resizable=0;points=[];fontFamily=Helvetica;fontSize=11;fontColor=default;labelBackgroundColor=default;" parent="O5-Aam5vRArmxlNxaEpb-223" vertex="1" connectable="0">
          <mxGeometry x="-0.7807" y="1" relative="1" as="geometry">
            <mxPoint x="1" y="-12" as="offset" />
          </mxGeometry>
        </mxCell>
        <mxCell id="O5-Aam5vRArmxlNxaEpb-222" value="Has" style="rhombus;whiteSpace=wrap;html=1;fontFamily=Helvetica;fontSize=11;fontColor=default;labelBackgroundColor=default;" parent="1" vertex="1">
          <mxGeometry x="34.75" y="200" width="50" height="50" as="geometry" />
        </mxCell>
        <mxCell id="O5-Aam5vRArmxlNxaEpb-227" value="" style="rounded=0;orthogonalLoop=1;jettySize=auto;html=1;endArrow=none;endFill=0;" parent="1" source="O5-Aam5vRArmxlNxaEpb-79" target="O5-Aam5vRArmxlNxaEpb-226" edge="1">
          <mxGeometry x="0.8947" relative="1" as="geometry">
            <mxPoint x="285" y="115" as="sourcePoint" />
            <mxPoint x="40" y="115" as="targetPoint" />
            <mxPoint as="offset" />
          </mxGeometry>
        </mxCell>
        <mxCell id="O5-Aam5vRArmxlNxaEpb-228" value="1" style="edgeLabel;html=1;align=center;verticalAlign=middle;resizable=0;points=[];fontFamily=Helvetica;fontSize=11;fontColor=default;labelBackgroundColor=default;" parent="O5-Aam5vRArmxlNxaEpb-227" vertex="1" connectable="0">
          <mxGeometry x="-0.2642" y="-3" relative="1" as="geometry">
            <mxPoint x="16" y="3" as="offset" />
          </mxGeometry>
        </mxCell>
        <mxCell id="O5-Aam5vRArmxlNxaEpb-226" value="Has" style="rhombus;whiteSpace=wrap;html=1;fontFamily=Helvetica;fontSize=11;fontColor=default;labelBackgroundColor=default;" parent="1" vertex="1">
          <mxGeometry x="185" y="90" width="50" height="50" as="geometry" />
        </mxCell>
        <mxCell id="O5-Aam5vRArmxlNxaEpb-229" value="Is a" style="rhombus;whiteSpace=wrap;html=1;fontFamily=Helvetica;fontSize=11;fontColor=default;labelBackgroundColor=default;" parent="1" vertex="1">
          <mxGeometry x="307.15" y="200" width="50" height="50" as="geometry" />
        </mxCell>
        <mxCell id="O5-Aam5vRArmxlNxaEpb-238" value="" style="edgeStyle=none;shape=connector;rounded=0;orthogonalLoop=1;jettySize=auto;html=1;strokeColor=default;align=center;verticalAlign=middle;fontFamily=Helvetica;fontSize=11;fontColor=default;labelBackgroundColor=default;endArrow=none;endFill=0;" parent="1" source="O5-Aam5vRArmxlNxaEpb-85" target="O5-Aam5vRArmxlNxaEpb-237" edge="1">
          <mxGeometry relative="1" as="geometry">
            <mxPoint x="695" y="834.6700000000001" as="sourcePoint" />
            <mxPoint x="985" y="834.6700000000001" as="targetPoint" />
          </mxGeometry>
        </mxCell>
        <mxCell id="O5-Aam5vRArmxlNxaEpb-240" value="1" style="edgeLabel;html=1;align=center;verticalAlign=middle;resizable=0;points=[];fontFamily=Helvetica;fontSize=11;fontColor=default;labelBackgroundColor=default;" parent="O5-Aam5vRArmxlNxaEpb-238" vertex="1" connectable="0">
          <mxGeometry x="-0.8467" y="-1" relative="1" as="geometry">
            <mxPoint x="1" y="8" as="offset" />
          </mxGeometry>
        </mxCell>
        <mxCell id="O5-Aam5vRArmxlNxaEpb-237" value="Of" style="rhombus;whiteSpace=wrap;html=1;fontFamily=Helvetica;fontSize=11;fontColor=default;labelBackgroundColor=default;" parent="1" vertex="1">
          <mxGeometry x="620" y="749.6700000000001" width="50" height="50" as="geometry" />
        </mxCell>
        <mxCell id="O5-Aam5vRArmxlNxaEpb-260" style="edgeStyle=none;shape=connector;rounded=0;orthogonalLoop=1;jettySize=auto;html=1;strokeColor=default;align=center;verticalAlign=middle;fontFamily=Helvetica;fontSize=11;fontColor=default;labelBackgroundColor=default;endArrow=none;endFill=0;" parent="1" source="O5-Aam5vRArmxlNxaEpb-272" target="O5-Aam5vRArmxlNxaEpb-142" edge="1">
          <mxGeometry relative="1" as="geometry" />
        </mxCell>
        <mxCell id="O5-Aam5vRArmxlNxaEpb-261" value="1" style="edgeLabel;html=1;align=center;verticalAlign=middle;resizable=0;points=[];fontFamily=Helvetica;fontSize=11;fontColor=default;labelBackgroundColor=default;" parent="O5-Aam5vRArmxlNxaEpb-260" vertex="1" connectable="0">
          <mxGeometry x="0.8267" y="-2" relative="1" as="geometry">
            <mxPoint x="7" y="2" as="offset" />
          </mxGeometry>
        </mxCell>
        <mxCell id="O5-Aam5vRArmxlNxaEpb-265" style="edgeStyle=none;shape=connector;rounded=0;orthogonalLoop=1;jettySize=auto;html=1;strokeColor=default;align=center;verticalAlign=middle;fontFamily=Helvetica;fontSize=11;fontColor=default;labelBackgroundColor=default;endArrow=none;endFill=0;" parent="1" source="O5-Aam5vRArmxlNxaEpb-259" target="O5-Aam5vRArmxlNxaEpb-264" edge="1">
          <mxGeometry relative="1" as="geometry" />
        </mxCell>
        <mxCell id="O5-Aam5vRArmxlNxaEpb-277" style="edgeStyle=none;shape=connector;rounded=0;orthogonalLoop=1;jettySize=auto;html=1;strokeColor=default;align=center;verticalAlign=middle;fontFamily=Helvetica;fontSize=11;fontColor=default;labelBackgroundColor=default;endArrow=none;endFill=0;" parent="1" source="O5-Aam5vRArmxlNxaEpb-282" target="O5-Aam5vRArmxlNxaEpb-276" edge="1">
          <mxGeometry relative="1" as="geometry" />
        </mxCell>
        <mxCell id="O5-Aam5vRArmxlNxaEpb-287" value="1,n" style="edgeLabel;html=1;align=center;verticalAlign=middle;resizable=0;points=[];fontFamily=Helvetica;fontSize=11;fontColor=default;labelBackgroundColor=default;" parent="O5-Aam5vRArmxlNxaEpb-277" vertex="1" connectable="0">
          <mxGeometry x="0.2935" y="2" relative="1" as="geometry">
            <mxPoint x="13" y="2" as="offset" />
          </mxGeometry>
        </mxCell>
        <mxCell id="1yOXm2m84MejSoIjWwgt-16" style="edgeStyle=none;shape=connector;rounded=0;orthogonalLoop=1;jettySize=auto;html=1;strokeColor=default;align=center;verticalAlign=middle;fontFamily=Helvetica;fontSize=11;fontColor=default;labelBackgroundColor=default;endArrow=none;endFill=0;" parent="1" source="O5-Aam5vRArmxlNxaEpb-259" target="1yOXm2m84MejSoIjWwgt-15" edge="1">
          <mxGeometry relative="1" as="geometry" />
        </mxCell>
        <mxCell id="O5-Aam5vRArmxlNxaEpb-259" value="Weeken Schedule" style="rounded=1;whiteSpace=wrap;html=1;fontFamily=Helvetica;fontSize=11;fontColor=default;labelBackgroundColor=default;" parent="1" vertex="1">
          <mxGeometry x="1160" y="310.00000000000006" width="100" height="50" as="geometry" />
        </mxCell>
        <mxCell id="O5-Aam5vRArmxlNxaEpb-264" value="Weekday" style="ellipse;whiteSpace=wrap;html=1;fontStyle=0" parent="1" vertex="1">
          <mxGeometry x="1230" y="362.50000000000006" width="90" height="50" as="geometry" />
        </mxCell>
        <mxCell id="O5-Aam5vRArmxlNxaEpb-271" style="edgeStyle=none;shape=connector;rounded=0;orthogonalLoop=1;jettySize=auto;html=1;strokeColor=default;align=center;verticalAlign=middle;fontFamily=Helvetica;fontSize=11;fontColor=default;labelBackgroundColor=default;endArrow=none;endFill=0;" parent="1" source="O5-Aam5vRArmxlNxaEpb-270" target="O5-Aam5vRArmxlNxaEpb-259" edge="1">
          <mxGeometry relative="1" as="geometry" />
        </mxCell>
        <mxCell id="O5-Aam5vRArmxlNxaEpb-270" value="&lt;span style=&quot;font-size: 11px; background-color: rgb(255, 255, 255);&quot;&gt;Weeken Schedule&amp;nbsp;&lt;/span&gt;&lt;div&gt;&lt;span style=&quot;&quot;&gt;Id&lt;/span&gt;&lt;/div&gt;" style="ellipse;whiteSpace=wrap;html=1;fontStyle=5" parent="1" vertex="1">
          <mxGeometry x="1165" y="250.00000000000006" width="90" height="50" as="geometry" />
        </mxCell>
        <mxCell id="O5-Aam5vRArmxlNxaEpb-273" value="" style="edgeStyle=none;shape=connector;rounded=0;orthogonalLoop=1;jettySize=auto;html=1;strokeColor=default;align=center;verticalAlign=middle;fontFamily=Helvetica;fontSize=11;fontColor=default;labelBackgroundColor=default;endArrow=none;endFill=0;" parent="1" source="O5-Aam5vRArmxlNxaEpb-259" target="O5-Aam5vRArmxlNxaEpb-272" edge="1">
          <mxGeometry relative="1" as="geometry">
            <mxPoint x="995" y="305" as="sourcePoint" />
            <mxPoint x="995" y="465" as="targetPoint" />
          </mxGeometry>
        </mxCell>
        <mxCell id="O5-Aam5vRArmxlNxaEpb-275" value="n" style="edgeLabel;html=1;align=center;verticalAlign=middle;resizable=0;points=[];fontFamily=Helvetica;fontSize=11;fontColor=default;labelBackgroundColor=default;" parent="O5-Aam5vRArmxlNxaEpb-273" vertex="1" connectable="0">
          <mxGeometry x="-0.8427" relative="1" as="geometry">
            <mxPoint x="-4" as="offset" />
          </mxGeometry>
        </mxCell>
        <mxCell id="O5-Aam5vRArmxlNxaEpb-272" value="Has" style="rhombus;whiteSpace=wrap;html=1;fontFamily=Helvetica;fontSize=11;fontColor=default;labelBackgroundColor=default;" parent="1" vertex="1">
          <mxGeometry x="1045" y="310" width="50" height="50" as="geometry" />
        </mxCell>
        <mxCell id="O5-Aam5vRArmxlNxaEpb-279" style="edgeStyle=none;shape=connector;rounded=0;orthogonalLoop=1;jettySize=auto;html=1;strokeColor=default;align=center;verticalAlign=middle;fontFamily=Helvetica;fontSize=11;fontColor=default;labelBackgroundColor=default;endArrow=none;endFill=0;" parent="1" source="O5-Aam5vRArmxlNxaEpb-276" target="O5-Aam5vRArmxlNxaEpb-278" edge="1">
          <mxGeometry relative="1" as="geometry" />
        </mxCell>
        <mxCell id="uetQmwVORCMHqKW5TT_V-27" style="edgeStyle=none;shape=connector;rounded=0;orthogonalLoop=1;jettySize=auto;html=1;strokeColor=default;align=center;verticalAlign=middle;fontFamily=Helvetica;fontSize=11;fontColor=default;labelBackgroundColor=default;endArrow=none;endFill=0;" parent="1" source="O5-Aam5vRArmxlNxaEpb-276" target="uetQmwVORCMHqKW5TT_V-26" edge="1">
          <mxGeometry relative="1" as="geometry" />
        </mxCell>
        <mxCell id="O5-Aam5vRArmxlNxaEpb-276" value="&lt;span style=&quot;font-size: 12px; background-color: rgb(251, 251, 251);&quot;&gt;Shift schedule&amp;nbsp;&lt;/span&gt;" style="rounded=1;whiteSpace=wrap;html=1;fontFamily=Helvetica;fontSize=11;fontColor=default;labelBackgroundColor=default;" parent="1" vertex="1">
          <mxGeometry x="1451" y="310.00000000000006" width="100" height="50" as="geometry" />
        </mxCell>
        <mxCell id="O5-Aam5vRArmxlNxaEpb-278" value="Shift schedule&amp;nbsp;&amp;nbsp;Id" style="ellipse;whiteSpace=wrap;html=1;fontStyle=5" parent="1" vertex="1">
          <mxGeometry x="1390" y="370.00000000000006" width="90" height="50" as="geometry" />
        </mxCell>
        <mxCell id="O5-Aam5vRArmxlNxaEpb-281" style="edgeStyle=none;shape=connector;rounded=0;orthogonalLoop=1;jettySize=auto;html=1;strokeColor=default;align=center;verticalAlign=middle;fontFamily=Helvetica;fontSize=11;fontColor=default;labelBackgroundColor=default;endArrow=none;endFill=0;" parent="1" source="O5-Aam5vRArmxlNxaEpb-280" target="O5-Aam5vRArmxlNxaEpb-276" edge="1">
          <mxGeometry relative="1" as="geometry" />
        </mxCell>
        <mxCell id="O5-Aam5vRArmxlNxaEpb-280" value="Start time" style="ellipse;whiteSpace=wrap;html=1;fontStyle=0" parent="1" vertex="1">
          <mxGeometry x="1480" y="250.00000000000006" width="90" height="50" as="geometry" />
        </mxCell>
        <mxCell id="O5-Aam5vRArmxlNxaEpb-283" value="" style="edgeStyle=none;shape=connector;rounded=0;orthogonalLoop=1;jettySize=auto;html=1;strokeColor=default;align=center;verticalAlign=middle;fontFamily=Helvetica;fontSize=11;fontColor=default;labelBackgroundColor=default;endArrow=none;endFill=0;" parent="1" source="O5-Aam5vRArmxlNxaEpb-259" target="O5-Aam5vRArmxlNxaEpb-282" edge="1">
          <mxGeometry relative="1" as="geometry">
            <mxPoint x="1225" y="303.75" as="sourcePoint" />
            <mxPoint x="1225" y="213.75" as="targetPoint" />
          </mxGeometry>
        </mxCell>
        <mxCell id="O5-Aam5vRArmxlNxaEpb-284" value="1" style="edgeLabel;html=1;align=center;verticalAlign=middle;resizable=0;points=[];fontFamily=Helvetica;fontSize=11;fontColor=default;labelBackgroundColor=default;" parent="O5-Aam5vRArmxlNxaEpb-283" vertex="1" connectable="0">
          <mxGeometry x="-0.32" y="1" relative="1" as="geometry">
            <mxPoint x="-10" y="1" as="offset" />
          </mxGeometry>
        </mxCell>
        <mxCell id="O5-Aam5vRArmxlNxaEpb-282" value="Work" style="rhombus;whiteSpace=wrap;html=1;fontFamily=Helvetica;fontSize=11;fontColor=default;labelBackgroundColor=default;" parent="1" vertex="1">
          <mxGeometry x="1320" y="310" width="50" height="50" as="geometry" />
        </mxCell>
        <mxCell id="O5-Aam5vRArmxlNxaEpb-286" style="edgeStyle=none;shape=connector;rounded=0;orthogonalLoop=1;jettySize=auto;html=1;strokeColor=default;align=center;verticalAlign=middle;fontFamily=Helvetica;fontSize=11;fontColor=default;labelBackgroundColor=default;endArrow=none;endFill=0;" parent="1" source="O5-Aam5vRArmxlNxaEpb-285" target="O5-Aam5vRArmxlNxaEpb-276" edge="1">
          <mxGeometry relative="1" as="geometry" />
        </mxCell>
        <mxCell id="O5-Aam5vRArmxlNxaEpb-285" value="End time" style="ellipse;whiteSpace=wrap;html=1;fontStyle=0" parent="1" vertex="1">
          <mxGeometry x="1500" y="373.51" width="90" height="50" as="geometry" />
        </mxCell>
        <mxCell id="O5-Aam5vRArmxlNxaEpb-296" style="edgeStyle=none;shape=connector;rounded=0;orthogonalLoop=1;jettySize=auto;html=1;strokeColor=default;align=center;verticalAlign=middle;fontFamily=Helvetica;fontSize=11;fontColor=default;labelBackgroundColor=default;endArrow=none;endFill=0;" parent="1" source="O5-Aam5vRArmxlNxaEpb-288" target="O5-Aam5vRArmxlNxaEpb-295" edge="1">
          <mxGeometry relative="1" as="geometry" />
        </mxCell>
        <mxCell id="O5-Aam5vRArmxlNxaEpb-298" style="edgeStyle=none;shape=connector;rounded=0;orthogonalLoop=1;jettySize=auto;html=1;strokeColor=default;align=center;verticalAlign=middle;fontFamily=Helvetica;fontSize=11;fontColor=default;labelBackgroundColor=default;endArrow=none;endFill=0;" parent="1" source="O5-Aam5vRArmxlNxaEpb-288" target="O5-Aam5vRArmxlNxaEpb-301" edge="1">
          <mxGeometry relative="1" as="geometry">
            <mxPoint x="1214.25" y="634.6700000000001" as="targetPoint" />
          </mxGeometry>
        </mxCell>
        <mxCell id="O5-Aam5vRArmxlNxaEpb-346" style="edgeStyle=none;shape=connector;rounded=0;orthogonalLoop=1;jettySize=auto;html=1;strokeColor=default;align=center;verticalAlign=middle;fontFamily=Helvetica;fontSize=11;fontColor=default;labelBackgroundColor=default;endArrow=none;endFill=0;" parent="1" source="O5-Aam5vRArmxlNxaEpb-347" target="O5-Aam5vRArmxlNxaEpb-341" edge="1">
          <mxGeometry relative="1" as="geometry" />
        </mxCell>
        <mxCell id="O5-Aam5vRArmxlNxaEpb-350" value="0,n" style="edgeLabel;html=1;align=center;verticalAlign=middle;resizable=0;points=[];fontFamily=Helvetica;fontSize=11;fontColor=default;labelBackgroundColor=default;" parent="O5-Aam5vRArmxlNxaEpb-346" vertex="1" connectable="0">
          <mxGeometry x="0.436" y="-1" relative="1" as="geometry">
            <mxPoint as="offset" />
          </mxGeometry>
        </mxCell>
        <mxCell id="1yOXm2m84MejSoIjWwgt-20" style="edgeStyle=none;shape=connector;rounded=0;orthogonalLoop=1;jettySize=auto;html=1;strokeColor=default;align=center;verticalAlign=middle;fontFamily=Helvetica;fontSize=11;fontColor=default;labelBackgroundColor=default;endArrow=none;endFill=0;" parent="1" source="O5-Aam5vRArmxlNxaEpb-288" target="1yOXm2m84MejSoIjWwgt-19" edge="1">
          <mxGeometry relative="1" as="geometry" />
        </mxCell>
        <mxCell id="O5-Aam5vRArmxlNxaEpb-288" value="Shift history" style="rounded=1;whiteSpace=wrap;html=1;fontFamily=Helvetica;fontSize=11;fontColor=default;labelBackgroundColor=default;" parent="1" vertex="1">
          <mxGeometry x="1160" y="672.1700000000001" width="100" height="50" as="geometry" />
        </mxCell>
        <mxCell id="O5-Aam5vRArmxlNxaEpb-295" value="&lt;span style=&quot;font-size: 11px; background-color: rgb(255, 255, 255);&quot;&gt;Shift history&amp;nbsp;&lt;/span&gt;&lt;span style=&quot;&quot;&gt;Id&lt;/span&gt;" style="ellipse;whiteSpace=wrap;html=1;fontStyle=5" parent="1" vertex="1">
          <mxGeometry x="1084.25" y="572.1700000000001" width="90" height="50" as="geometry" />
        </mxCell>
        <mxCell id="O5-Aam5vRArmxlNxaEpb-300" style="edgeStyle=none;shape=connector;rounded=0;orthogonalLoop=1;jettySize=auto;html=1;strokeColor=default;align=center;verticalAlign=middle;fontFamily=Helvetica;fontSize=11;fontColor=default;labelBackgroundColor=default;endArrow=none;endFill=0;" parent="1" source="O5-Aam5vRArmxlNxaEpb-299" target="O5-Aam5vRArmxlNxaEpb-288" edge="1">
          <mxGeometry relative="1" as="geometry" />
        </mxCell>
        <mxCell id="O5-Aam5vRArmxlNxaEpb-299" value="Check in time" style="ellipse;whiteSpace=wrap;html=1;fontStyle=0" parent="1" vertex="1">
          <mxGeometry x="1045" y="621.2500000000001" width="90" height="50" as="geometry" />
        </mxCell>
        <mxCell id="O5-Aam5vRArmxlNxaEpb-301" value="Check out time" style="ellipse;whiteSpace=wrap;html=1;fontStyle=0" parent="1" vertex="1">
          <mxGeometry x="1064.25" y="709.6700000000001" width="90" height="50" as="geometry" />
        </mxCell>
        <mxCell id="O5-Aam5vRArmxlNxaEpb-339" style="edgeStyle=none;shape=connector;rounded=0;orthogonalLoop=1;jettySize=auto;html=1;strokeColor=default;align=center;verticalAlign=middle;fontFamily=Helvetica;fontSize=11;fontColor=default;labelBackgroundColor=default;endArrow=none;endFill=0;" parent="1" source="O5-Aam5vRArmxlNxaEpb-341" target="O5-Aam5vRArmxlNxaEpb-342" edge="1">
          <mxGeometry relative="1" as="geometry" />
        </mxCell>
        <mxCell id="O5-Aam5vRArmxlNxaEpb-340" style="edgeStyle=none;shape=connector;rounded=0;orthogonalLoop=1;jettySize=auto;html=1;strokeColor=default;align=center;verticalAlign=middle;fontFamily=Helvetica;fontSize=11;fontColor=default;labelBackgroundColor=default;endArrow=none;endFill=0;" parent="1" source="O5-Aam5vRArmxlNxaEpb-341" target="O5-Aam5vRArmxlNxaEpb-345" edge="1">
          <mxGeometry relative="1" as="geometry">
            <mxPoint x="1486" y="574.83" as="targetPoint" />
          </mxGeometry>
        </mxCell>
        <mxCell id="O5-Aam5vRArmxlNxaEpb-341" value="Work Overtime" style="rounded=1;whiteSpace=wrap;html=1;fontFamily=Helvetica;fontSize=11;fontColor=default;labelBackgroundColor=default;" parent="1" vertex="1">
          <mxGeometry x="1436" y="671.08" width="100" height="50" as="geometry" />
        </mxCell>
        <mxCell id="O5-Aam5vRArmxlNxaEpb-342" value="&lt;span style=&quot;&quot;&gt;Work Overtime Id&lt;/span&gt;" style="ellipse;whiteSpace=wrap;html=1;fontStyle=5" parent="1" vertex="1">
          <mxGeometry x="1350.75" y="716.08" width="90" height="50" as="geometry" />
        </mxCell>
        <mxCell id="O5-Aam5vRArmxlNxaEpb-343" style="edgeStyle=none;shape=connector;rounded=0;orthogonalLoop=1;jettySize=auto;html=1;strokeColor=default;align=center;verticalAlign=middle;fontFamily=Helvetica;fontSize=11;fontColor=default;labelBackgroundColor=default;endArrow=none;endFill=0;" parent="1" source="O5-Aam5vRArmxlNxaEpb-344" target="O5-Aam5vRArmxlNxaEpb-341" edge="1">
          <mxGeometry relative="1" as="geometry" />
        </mxCell>
        <mxCell id="O5-Aam5vRArmxlNxaEpb-344" value="Start time" style="ellipse;whiteSpace=wrap;html=1;fontStyle=0" parent="1" vertex="1">
          <mxGeometry x="1451.75" y="616.0799999999999" width="90" height="50" as="geometry" />
        </mxCell>
        <mxCell id="O5-Aam5vRArmxlNxaEpb-345" value="End time" style="ellipse;whiteSpace=wrap;html=1;fontStyle=0" parent="1" vertex="1">
          <mxGeometry x="1441" y="728.9100000000001" width="90" height="50" as="geometry" />
        </mxCell>
        <mxCell id="O5-Aam5vRArmxlNxaEpb-348" value="" style="edgeStyle=none;shape=connector;rounded=0;orthogonalLoop=1;jettySize=auto;html=1;strokeColor=default;align=center;verticalAlign=middle;fontFamily=Helvetica;fontSize=11;fontColor=default;labelBackgroundColor=default;endArrow=none;endFill=0;" parent="1" source="O5-Aam5vRArmxlNxaEpb-288" target="O5-Aam5vRArmxlNxaEpb-347" edge="1">
          <mxGeometry relative="1" as="geometry">
            <mxPoint x="1196.75" y="529.6700000000001" as="sourcePoint" />
            <mxPoint x="1406.75" y="529.6700000000001" as="targetPoint" />
          </mxGeometry>
        </mxCell>
        <mxCell id="O5-Aam5vRArmxlNxaEpb-349" value="1" style="edgeLabel;html=1;align=center;verticalAlign=middle;resizable=0;points=[];fontFamily=Helvetica;fontSize=11;fontColor=default;labelBackgroundColor=default;" parent="O5-Aam5vRArmxlNxaEpb-348" vertex="1" connectable="0">
          <mxGeometry x="-0.5851" y="1" relative="1" as="geometry">
            <mxPoint as="offset" />
          </mxGeometry>
        </mxCell>
        <mxCell id="O5-Aam5vRArmxlNxaEpb-347" value="Did" style="rhombus;whiteSpace=wrap;html=1;fontFamily=Helvetica;fontSize=11;fontColor=default;labelBackgroundColor=default;" parent="1" vertex="1">
          <mxGeometry x="1320" y="671.08" width="50" height="50" as="geometry" />
        </mxCell>
        <mxCell id="O5-Aam5vRArmxlNxaEpb-355" value="Penalty reason" style="ellipse;whiteSpace=wrap;html=1;fontStyle=0" parent="1" vertex="1">
          <mxGeometry x="1164.25" y="890.0000000000001" width="90" height="50" as="geometry" />
        </mxCell>
        <mxCell id="O5-Aam5vRArmxlNxaEpb-357" value="Should punish" style="ellipse;whiteSpace=wrap;html=1;fontStyle=0" parent="1" vertex="1">
          <mxGeometry x="1060" y="849.6700000000001" width="90" height="50" as="geometry" />
        </mxCell>
        <mxCell id="O5-Aam5vRArmxlNxaEpb-374" style="edgeStyle=none;shape=connector;rounded=0;orthogonalLoop=1;jettySize=auto;html=1;strokeColor=default;align=center;verticalAlign=middle;fontFamily=Helvetica;fontSize=11;fontColor=default;labelBackgroundColor=default;endArrow=none;endFill=0;" parent="1" source="O5-Aam5vRArmxlNxaEpb-375" target="O5-Aam5vRArmxlNxaEpb-288" edge="1">
          <mxGeometry relative="1" as="geometry" />
        </mxCell>
        <mxCell id="O5-Aam5vRArmxlNxaEpb-381" value="1" style="edgeLabel;html=1;align=center;verticalAlign=middle;resizable=0;points=[];fontFamily=Helvetica;fontSize=11;fontColor=default;labelBackgroundColor=default;" parent="O5-Aam5vRArmxlNxaEpb-374" vertex="1" connectable="0">
          <mxGeometry x="0.8191" y="1" relative="1" as="geometry">
            <mxPoint x="-2" y="-6" as="offset" />
          </mxGeometry>
        </mxCell>
        <mxCell id="O5-Aam5vRArmxlNxaEpb-393" style="edgeStyle=none;shape=connector;rounded=0;orthogonalLoop=1;jettySize=auto;html=1;strokeColor=default;align=center;verticalAlign=middle;fontFamily=Helvetica;fontSize=11;fontColor=default;labelBackgroundColor=default;endArrow=none;endFill=0;" parent="1" source="O5-Aam5vRArmxlNxaEpb-359" target="O5-Aam5vRArmxlNxaEpb-392" edge="1">
          <mxGeometry relative="1" as="geometry" />
        </mxCell>
        <mxCell id="O5-Aam5vRArmxlNxaEpb-359" value="&lt;span style=&quot;font-size: 12px; background-color: rgb(251, 251, 251);&quot;&gt;Bonus&lt;/span&gt;" style="rounded=1;whiteSpace=wrap;html=1;fontFamily=Helvetica;fontSize=11;fontColor=default;labelBackgroundColor=default;" parent="1" vertex="1">
          <mxGeometry x="1159.62" y="475.6499999999999" width="100" height="50" as="geometry" />
        </mxCell>
        <mxCell id="O5-Aam5vRArmxlNxaEpb-364" style="edgeStyle=none;shape=connector;rounded=0;orthogonalLoop=1;jettySize=auto;html=1;strokeColor=default;align=center;verticalAlign=middle;fontFamily=Helvetica;fontSize=11;fontColor=default;labelBackgroundColor=default;endArrow=none;endFill=0;" parent="1" source="O5-Aam5vRArmxlNxaEpb-363" target="O5-Aam5vRArmxlNxaEpb-359" edge="1">
          <mxGeometry relative="1" as="geometry" />
        </mxCell>
        <mxCell id="O5-Aam5vRArmxlNxaEpb-363" value="Daily Bonus&amp;nbsp;Id" style="ellipse;whiteSpace=wrap;html=1;fontStyle=5" parent="1" vertex="1">
          <mxGeometry x="1064.25" y="500.0000000000001" width="90" height="50" as="geometry" />
        </mxCell>
        <mxCell id="O5-Aam5vRArmxlNxaEpb-369" value="" style="edgeStyle=none;shape=connector;rounded=0;orthogonalLoop=1;jettySize=auto;html=1;strokeColor=default;align=center;verticalAlign=middle;fontFamily=Helvetica;fontSize=11;fontColor=default;labelBackgroundColor=default;endArrow=none;endFill=0;" parent="1" source="O5-Aam5vRArmxlNxaEpb-43" target="O5-Aam5vRArmxlNxaEpb-368" edge="1">
          <mxGeometry relative="1" as="geometry">
            <mxPoint x="669.25" y="475.6700000000001" as="sourcePoint" />
            <mxPoint x="1214.25" y="542.1700000000001" as="targetPoint" />
          </mxGeometry>
        </mxCell>
        <mxCell id="O5-Aam5vRArmxlNxaEpb-370" value="0,n" style="edgeLabel;html=1;align=center;verticalAlign=middle;resizable=0;points=[];fontFamily=Helvetica;fontSize=11;fontColor=default;labelBackgroundColor=default;" parent="O5-Aam5vRArmxlNxaEpb-369" vertex="1" connectable="0">
          <mxGeometry x="-0.8849" y="1" relative="1" as="geometry">
            <mxPoint x="1" y="-11" as="offset" />
          </mxGeometry>
        </mxCell>
        <mxCell id="O5-Aam5vRArmxlNxaEpb-368" value="Has" style="rhombus;whiteSpace=wrap;html=1;fontFamily=Helvetica;fontSize=11;fontColor=default;labelBackgroundColor=default;" parent="1" vertex="1">
          <mxGeometry x="1185" y="749.6700000000001" width="50" height="50" as="geometry" />
        </mxCell>
        <mxCell id="O5-Aam5vRArmxlNxaEpb-372" value="&lt;span style=&quot;font-size: 11px; background-color: rgb(255, 255, 255);&quot;&gt;Shift history&amp;nbsp;&lt;/span&gt;&lt;span style=&quot;&quot;&gt;Id&lt;/span&gt;" style="ellipse;whiteSpace=wrap;html=1;fontStyle=4" parent="1" vertex="1">
          <mxGeometry x="1260" y="799.6700000000001" width="90" height="50" as="geometry" />
        </mxCell>
        <mxCell id="O5-Aam5vRArmxlNxaEpb-376" value="" style="edgeStyle=none;shape=connector;rounded=0;orthogonalLoop=1;jettySize=auto;html=1;strokeColor=default;align=center;verticalAlign=middle;fontFamily=Helvetica;fontSize=11;fontColor=default;labelBackgroundColor=default;endArrow=none;endFill=0;" parent="1" source="O5-Aam5vRArmxlNxaEpb-359" target="O5-Aam5vRArmxlNxaEpb-375" edge="1">
          <mxGeometry relative="1" as="geometry">
            <mxPoint x="852.25" y="632.7500000000002" as="sourcePoint" />
            <mxPoint x="1262.25" y="749.75" as="targetPoint" />
          </mxGeometry>
        </mxCell>
        <mxCell id="O5-Aam5vRArmxlNxaEpb-380" value="0,n" style="edgeLabel;html=1;align=center;verticalAlign=middle;resizable=0;points=[];fontFamily=Helvetica;fontSize=11;fontColor=default;labelBackgroundColor=default;" parent="O5-Aam5vRArmxlNxaEpb-376" vertex="1" connectable="0">
          <mxGeometry x="-0.8534" y="2" relative="1" as="geometry">
            <mxPoint x="-2" y="11" as="offset" />
          </mxGeometry>
        </mxCell>
        <mxCell id="O5-Aam5vRArmxlNxaEpb-375" value="Has" style="rhombus;whiteSpace=wrap;html=1;fontFamily=Helvetica;fontSize=11;fontColor=default;labelBackgroundColor=default;" parent="1" vertex="1">
          <mxGeometry x="1184.25" y="578.4200000000001" width="50" height="50" as="geometry" />
        </mxCell>
        <mxCell id="O5-Aam5vRArmxlNxaEpb-383" style="edgeStyle=none;shape=connector;rounded=0;orthogonalLoop=1;jettySize=auto;html=1;strokeColor=default;align=center;verticalAlign=middle;fontFamily=Helvetica;fontSize=11;fontColor=default;labelBackgroundColor=default;endArrow=none;endFill=0;" parent="1" source="O5-Aam5vRArmxlNxaEpb-382" target="O5-Aam5vRArmxlNxaEpb-359" edge="1">
          <mxGeometry relative="1" as="geometry" />
        </mxCell>
        <mxCell id="O5-Aam5vRArmxlNxaEpb-382" value="Bonus value" style="ellipse;whiteSpace=wrap;html=1;fontStyle=0" parent="1" vertex="1">
          <mxGeometry x="1165" y="420" width="90" height="50" as="geometry" />
        </mxCell>
        <mxCell id="O5-Aam5vRArmxlNxaEpb-384" value="&lt;span style=&quot;font-size: 12px; background-color: rgb(251, 251, 251);&quot;&gt;Monthly bonus-Employee wage&lt;/span&gt;" style="rounded=1;whiteSpace=wrap;html=1;fontFamily=Helvetica;fontSize=11;fontColor=default;labelBackgroundColor=default;" parent="1" vertex="1">
          <mxGeometry x="307.1499999999999" y="669.6700000000001" width="100" height="50" as="geometry" />
        </mxCell>
        <mxCell id="O5-Aam5vRArmxlNxaEpb-387" style="edgeStyle=none;shape=connector;rounded=0;orthogonalLoop=1;jettySize=auto;html=1;strokeColor=default;align=center;verticalAlign=middle;fontFamily=Helvetica;fontSize=11;fontColor=default;labelBackgroundColor=default;endArrow=none;endFill=0;" parent="1" source="O5-Aam5vRArmxlNxaEpb-386" target="O5-Aam5vRArmxlNxaEpb-384" edge="1">
          <mxGeometry relative="1" as="geometry" />
        </mxCell>
        <mxCell id="O5-Aam5vRArmxlNxaEpb-386" value="Monthly Id" style="ellipse;whiteSpace=wrap;html=1;fontStyle=5" parent="1" vertex="1">
          <mxGeometry x="312.1499999999999" y="614.6700000000001" width="90" height="50" as="geometry" />
        </mxCell>
        <mxCell id="O5-Aam5vRArmxlNxaEpb-392" value="Bonus reason" style="ellipse;whiteSpace=wrap;html=1;fontStyle=0" parent="1" vertex="1">
          <mxGeometry x="1260" y="510.0000000000001" width="90" height="50" as="geometry" />
        </mxCell>
        <mxCell id="O5-Aam5vRArmxlNxaEpb-395" value="" style="edgeStyle=none;shape=connector;rounded=0;orthogonalLoop=1;jettySize=auto;html=1;strokeColor=default;align=center;verticalAlign=middle;fontFamily=Helvetica;fontSize=11;fontColor=default;labelBackgroundColor=default;endArrow=none;endFill=0;" parent="1" source="O5-Aam5vRArmxlNxaEpb-85" target="O5-Aam5vRArmxlNxaEpb-394" edge="1">
          <mxGeometry relative="1" as="geometry">
            <mxPoint x="609" y="809.6700000000001" as="sourcePoint" />
            <mxPoint x="290.99999999999994" y="592.6700000000001" as="targetPoint" />
          </mxGeometry>
        </mxCell>
        <mxCell id="O5-Aam5vRArmxlNxaEpb-396" value="1" style="edgeLabel;html=1;align=center;verticalAlign=middle;resizable=0;points=[];fontFamily=Helvetica;fontSize=11;fontColor=default;labelBackgroundColor=default;" parent="O5-Aam5vRArmxlNxaEpb-395" vertex="1" connectable="0">
          <mxGeometry x="-0.7688" relative="1" as="geometry">
            <mxPoint as="offset" />
          </mxGeometry>
        </mxCell>
        <mxCell id="O5-Aam5vRArmxlNxaEpb-394" value="Has" style="rhombus;whiteSpace=wrap;html=1;fontFamily=Helvetica;fontSize=11;fontColor=default;labelBackgroundColor=default;" parent="1" vertex="1">
          <mxGeometry x="479.75" y="669.6700000000001" width="50" height="50" as="geometry" />
        </mxCell>
        <mxCell id="O5-Aam5vRArmxlNxaEpb-398" value="Employee Id" style="ellipse;whiteSpace=wrap;html=1;fontStyle=4" parent="1" vertex="1">
          <mxGeometry x="350" y="148.75" width="90" height="50" as="geometry" />
        </mxCell>
        <mxCell id="O5-Aam5vRArmxlNxaEpb-406" style="edgeStyle=none;shape=connector;rounded=0;orthogonalLoop=1;jettySize=auto;html=1;strokeColor=default;align=center;verticalAlign=middle;fontFamily=Helvetica;fontSize=11;fontColor=default;labelBackgroundColor=default;endArrow=none;endFill=0;" parent="1" source="O5-Aam5vRArmxlNxaEpb-405" target="O5-Aam5vRArmxlNxaEpb-384" edge="1">
          <mxGeometry relative="1" as="geometry" />
        </mxCell>
        <mxCell id="O5-Aam5vRArmxlNxaEpb-405" value="Wage Id" style="ellipse;whiteSpace=wrap;html=1;fontStyle=5" parent="1" vertex="1">
          <mxGeometry x="312.1499999999999" y="729.6700000000001" width="90" height="50" as="geometry" />
        </mxCell>
        <mxCell id="O5-Aam5vRArmxlNxaEpb-407" style="edgeStyle=none;shape=connector;rounded=0;orthogonalLoop=1;jettySize=auto;html=1;strokeColor=default;align=center;verticalAlign=middle;fontFamily=Helvetica;fontSize=11;fontColor=default;labelBackgroundColor=default;endArrow=none;endFill=0;" parent="1" source="O5-Aam5vRArmxlNxaEpb-418" target="O5-Aam5vRArmxlNxaEpb-410" edge="1">
          <mxGeometry relative="1" as="geometry" />
        </mxCell>
        <mxCell id="O5-Aam5vRArmxlNxaEpb-408" value="0,n" style="edgeLabel;html=1;align=center;verticalAlign=middle;resizable=0;points=[];fontFamily=Helvetica;fontSize=11;fontColor=default;labelBackgroundColor=default;" parent="O5-Aam5vRArmxlNxaEpb-407" vertex="1" connectable="0">
          <mxGeometry x="0.5379" y="2" relative="1" as="geometry">
            <mxPoint as="offset" />
          </mxGeometry>
        </mxCell>
        <mxCell id="O5-Aam5vRArmxlNxaEpb-409" style="edgeStyle=none;shape=connector;rounded=0;orthogonalLoop=1;jettySize=auto;html=1;strokeColor=default;align=center;verticalAlign=middle;fontFamily=Helvetica;fontSize=11;fontColor=default;labelBackgroundColor=default;endArrow=none;endFill=0;" parent="1" source="O5-Aam5vRArmxlNxaEpb-410" target="O5-Aam5vRArmxlNxaEpb-411" edge="1">
          <mxGeometry relative="1" as="geometry" />
        </mxCell>
        <mxCell id="O5-Aam5vRArmxlNxaEpb-410" value="&lt;span style=&quot;font-size: 12px; background-color: rgb(251, 251, 251);&quot;&gt;On Leave History&lt;/span&gt;" style="rounded=1;whiteSpace=wrap;html=1;fontFamily=Helvetica;fontSize=11;fontColor=default;labelBackgroundColor=default;" parent="1" vertex="1">
          <mxGeometry x="595" y="479.99999999999994" width="100" height="50" as="geometry" />
        </mxCell>
        <mxCell id="O5-Aam5vRArmxlNxaEpb-411" value="On leave Id" style="ellipse;whiteSpace=wrap;html=1;fontStyle=5" parent="1" vertex="1">
          <mxGeometry x="505" y="534.67" width="90" height="50" as="geometry" />
        </mxCell>
        <mxCell id="O5-Aam5vRArmxlNxaEpb-412" style="edgeStyle=none;shape=connector;rounded=0;orthogonalLoop=1;jettySize=auto;html=1;strokeColor=default;align=center;verticalAlign=middle;fontFamily=Helvetica;fontSize=11;fontColor=default;labelBackgroundColor=default;endArrow=none;endFill=0;" parent="1" source="O5-Aam5vRArmxlNxaEpb-413" target="O5-Aam5vRArmxlNxaEpb-410" edge="1">
          <mxGeometry relative="1" as="geometry" />
        </mxCell>
        <mxCell id="O5-Aam5vRArmxlNxaEpb-413" value="Start time" style="ellipse;whiteSpace=wrap;html=1;fontStyle=0" parent="1" vertex="1">
          <mxGeometry x="595" y="543.0999999999998" width="90" height="50" as="geometry" />
        </mxCell>
        <mxCell id="O5-Aam5vRArmxlNxaEpb-414" style="edgeStyle=none;shape=connector;rounded=0;orthogonalLoop=1;jettySize=auto;html=1;strokeColor=default;align=center;verticalAlign=middle;fontFamily=Helvetica;fontSize=11;fontColor=default;labelBackgroundColor=default;endArrow=none;endFill=0;" parent="1" source="O5-Aam5vRArmxlNxaEpb-415" target="O5-Aam5vRArmxlNxaEpb-410" edge="1">
          <mxGeometry relative="1" as="geometry" />
        </mxCell>
        <mxCell id="O5-Aam5vRArmxlNxaEpb-415" value="Do punishment" style="ellipse;whiteSpace=wrap;html=1;fontStyle=0" parent="1" vertex="1">
          <mxGeometry x="495" y="473.50999999999993" width="90" height="50" as="geometry" />
        </mxCell>
        <mxCell id="O5-Aam5vRArmxlNxaEpb-416" style="edgeStyle=none;shape=connector;rounded=0;orthogonalLoop=1;jettySize=auto;html=1;strokeColor=default;align=center;verticalAlign=middle;fontFamily=Helvetica;fontSize=11;fontColor=default;labelBackgroundColor=default;endArrow=none;endFill=0;" parent="1" source="O5-Aam5vRArmxlNxaEpb-417" target="O5-Aam5vRArmxlNxaEpb-410" edge="1">
          <mxGeometry relative="1" as="geometry" />
        </mxCell>
        <mxCell id="O5-Aam5vRArmxlNxaEpb-417" value="End time" style="ellipse;whiteSpace=wrap;html=1;fontStyle=0" parent="1" vertex="1">
          <mxGeometry x="535.25" y="419.99999999999994" width="90" height="50" as="geometry" />
        </mxCell>
        <mxCell id="uetQmwVORCMHqKW5TT_V-82" style="edgeStyle=none;shape=connector;rounded=0;orthogonalLoop=1;jettySize=auto;html=1;strokeColor=default;align=center;verticalAlign=middle;fontFamily=Helvetica;fontSize=11;fontColor=default;labelBackgroundColor=default;endArrow=none;endFill=0;" parent="1" source="O5-Aam5vRArmxlNxaEpb-418" target="uetQmwVORCMHqKW5TT_V-72" edge="1">
          <mxGeometry relative="1" as="geometry" />
        </mxCell>
        <mxCell id="uetQmwVORCMHqKW5TT_V-103" value="1" style="edgeLabel;html=1;align=center;verticalAlign=middle;resizable=0;points=[];fontFamily=Helvetica;fontSize=11;fontColor=default;labelBackgroundColor=default;" parent="uetQmwVORCMHqKW5TT_V-82" vertex="1" connectable="0">
          <mxGeometry x="0.5273" y="1" relative="1" as="geometry">
            <mxPoint as="offset" />
          </mxGeometry>
        </mxCell>
        <mxCell id="O5-Aam5vRArmxlNxaEpb-418" value="Has" style="rhombus;whiteSpace=wrap;html=1;fontFamily=Helvetica;fontSize=11;fontColor=default;labelBackgroundColor=default;" parent="1" vertex="1">
          <mxGeometry x="750" y="479.9999999999999" width="50" height="50" as="geometry" />
        </mxCell>
        <mxCell id="1yOXm2m84MejSoIjWwgt-3" style="edgeStyle=none;shape=connector;rounded=0;orthogonalLoop=1;jettySize=auto;html=1;strokeColor=default;align=center;verticalAlign=middle;fontFamily=Helvetica;fontSize=11;fontColor=default;labelBackgroundColor=default;endArrow=none;endFill=0;" parent="1" source="1yOXm2m84MejSoIjWwgt-1" target="O5-Aam5vRArmxlNxaEpb-37" edge="1">
          <mxGeometry relative="1" as="geometry" />
        </mxCell>
        <mxCell id="1yOXm2m84MejSoIjWwgt-1" value="Employee photo" style="ellipse;whiteSpace=wrap;html=1;fontStyle=0" parent="1" vertex="1">
          <mxGeometry x="340" y="230" width="90" height="50" as="geometry" />
        </mxCell>
        <mxCell id="1yOXm2m84MejSoIjWwgt-15" value="Work schedule Id" style="ellipse;whiteSpace=wrap;html=1;fontStyle=4" parent="1" vertex="1">
          <mxGeometry x="1110" y="362.50000000000006" width="90" height="50" as="geometry" />
        </mxCell>
        <mxCell id="1yOXm2m84MejSoIjWwgt-18" style="edgeStyle=none;shape=connector;rounded=0;orthogonalLoop=1;jettySize=auto;html=1;strokeColor=default;align=center;verticalAlign=middle;fontFamily=Helvetica;fontSize=11;fontColor=default;labelBackgroundColor=default;endArrow=none;endFill=0;" parent="1" source="1yOXm2m84MejSoIjWwgt-17" target="O5-Aam5vRArmxlNxaEpb-276" edge="1">
          <mxGeometry relative="1" as="geometry" />
        </mxCell>
        <mxCell id="1yOXm2m84MejSoIjWwgt-17" value="&lt;span style=&quot;font-size: 11px; background-color: rgb(255, 255, 255);&quot;&gt;Weeken Schedule&amp;nbsp;&lt;/span&gt;&lt;div style=&quot;&quot;&gt;Id&lt;/div&gt;" style="ellipse;whiteSpace=wrap;html=1;fontStyle=4" parent="1" vertex="1">
          <mxGeometry x="1380" y="260.00000000000006" width="90" height="50" as="geometry" />
        </mxCell>
        <mxCell id="1yOXm2m84MejSoIjWwgt-19" value="&lt;span style=&quot;font-size: 11px; background-color: rgb(255, 255, 255);&quot;&gt;Working Day History&lt;/span&gt;&lt;span style=&quot;&quot;&gt;&amp;nbsp;Id&lt;/span&gt;" style="ellipse;whiteSpace=wrap;html=1;fontStyle=4" parent="1" vertex="1">
          <mxGeometry x="1250" y="714.6700000000001" width="90" height="50" as="geometry" />
        </mxCell>
        <mxCell id="1yOXm2m84MejSoIjWwgt-22" style="edgeStyle=none;shape=connector;rounded=0;orthogonalLoop=1;jettySize=auto;html=1;strokeColor=default;align=center;verticalAlign=middle;fontFamily=Helvetica;fontSize=11;fontColor=default;labelBackgroundColor=default;endArrow=none;endFill=0;" parent="1" source="1yOXm2m84MejSoIjWwgt-21" target="O5-Aam5vRArmxlNxaEpb-341" edge="1">
          <mxGeometry relative="1" as="geometry" />
        </mxCell>
        <mxCell id="1yOXm2m84MejSoIjWwgt-21" value="&lt;span style=&quot;font-size: 11px; background-color: rgb(255, 255, 255);&quot;&gt;Shift history&amp;nbsp;&lt;/span&gt;&lt;span style=&quot;&quot;&gt;Id&lt;/span&gt;" style="ellipse;whiteSpace=wrap;html=1;fontStyle=4" parent="1" vertex="1">
          <mxGeometry x="1361.75" y="625.49" width="90" height="50" as="geometry" />
        </mxCell>
        <mxCell id="xSsR4cx_0JswZfBIH0DQ-2" style="rounded=0;orthogonalLoop=1;jettySize=auto;html=1;endArrow=none;endFill=0;" parent="1" source="xSsR4cx_0JswZfBIH0DQ-1" target="O5-Aam5vRArmxlNxaEpb-42" edge="1">
          <mxGeometry relative="1" as="geometry" />
        </mxCell>
        <mxCell id="xSsR4cx_0JswZfBIH0DQ-1" value="Wage Id" style="ellipse;whiteSpace=wrap;html=1;fontStyle=4" parent="1" vertex="1">
          <mxGeometry x="510" y="780.0000000000001" width="90" height="50" as="geometry" />
        </mxCell>
        <mxCell id="5P663EwDF2cx9lBnHZDV-17" style="edgeStyle=none;shape=connector;rounded=0;orthogonalLoop=1;jettySize=auto;html=1;strokeColor=default;align=center;verticalAlign=middle;fontFamily=Helvetica;fontSize=11;fontColor=default;labelBackgroundColor=default;endArrow=none;endFill=0;" parent="1" source="5P663EwDF2cx9lBnHZDV-19" target="5P663EwDF2cx9lBnHZDV-22" edge="1">
          <mxGeometry relative="1" as="geometry" />
        </mxCell>
        <mxCell id="5P663EwDF2cx9lBnHZDV-18" style="edgeStyle=none;shape=connector;rounded=0;orthogonalLoop=1;jettySize=auto;html=1;strokeColor=default;align=center;verticalAlign=middle;fontFamily=Helvetica;fontSize=11;fontColor=default;labelBackgroundColor=default;endArrow=none;endFill=0;" parent="1" source="5P663EwDF2cx9lBnHZDV-19" target="5P663EwDF2cx9lBnHZDV-23" edge="1">
          <mxGeometry relative="1" as="geometry" />
        </mxCell>
        <mxCell id="5P663EwDF2cx9lBnHZDV-26" style="edgeStyle=none;shape=connector;rounded=0;orthogonalLoop=1;jettySize=auto;html=1;strokeColor=default;align=center;verticalAlign=middle;fontFamily=Helvetica;fontSize=11;fontColor=default;labelBackgroundColor=default;endArrow=none;endFill=0;" parent="1" source="5P663EwDF2cx9lBnHZDV-29" target="O5-Aam5vRArmxlNxaEpb-384" edge="1">
          <mxGeometry relative="1" as="geometry" />
        </mxCell>
        <mxCell id="5P663EwDF2cx9lBnHZDV-27" value="1,n" style="edgeLabel;html=1;align=center;verticalAlign=middle;resizable=0;points=[];fontFamily=Helvetica;fontSize=11;fontColor=default;labelBackgroundColor=default;" parent="5P663EwDF2cx9lBnHZDV-26" vertex="1" connectable="0">
          <mxGeometry x="0.8143" y="-1" relative="1" as="geometry">
            <mxPoint x="-15" y="-1" as="offset" />
          </mxGeometry>
        </mxCell>
        <mxCell id="5P663EwDF2cx9lBnHZDV-19" value="&lt;span style=&quot;font-size: 12px; background-color: rgb(251, 251, 251);&quot;&gt;Monthly bonus&lt;/span&gt;" style="rounded=1;whiteSpace=wrap;html=1;fontFamily=Helvetica;fontSize=11;fontColor=default;labelBackgroundColor=default;" parent="1" vertex="1">
          <mxGeometry x="9.999999999999943" y="672.5000000000001" width="100" height="50" as="geometry" />
        </mxCell>
        <mxCell id="5P663EwDF2cx9lBnHZDV-20" style="edgeStyle=none;shape=connector;rounded=0;orthogonalLoop=1;jettySize=auto;html=1;strokeColor=default;align=center;verticalAlign=middle;fontFamily=Helvetica;fontSize=11;fontColor=default;labelBackgroundColor=default;endArrow=none;endFill=0;" parent="1" source="5P663EwDF2cx9lBnHZDV-21" target="5P663EwDF2cx9lBnHZDV-19" edge="1">
          <mxGeometry relative="1" as="geometry" />
        </mxCell>
        <mxCell id="5P663EwDF2cx9lBnHZDV-21" value="Monthly Id" style="ellipse;whiteSpace=wrap;html=1;fontStyle=5" parent="1" vertex="1">
          <mxGeometry x="109.99999999999994" y="710.0000000000001" width="90" height="50" as="geometry" />
        </mxCell>
        <mxCell id="5P663EwDF2cx9lBnHZDV-22" value="Bonus value" style="ellipse;whiteSpace=wrap;html=1;fontStyle=0" parent="1" vertex="1">
          <mxGeometry x="14.999999999999943" y="615.0000000000001" width="90" height="50" as="geometry" />
        </mxCell>
        <mxCell id="5P663EwDF2cx9lBnHZDV-23" value="Bonus reason" style="ellipse;whiteSpace=wrap;html=1;fontStyle=0" parent="1" vertex="1">
          <mxGeometry x="14.999999999999943" y="730.0000000000001" width="90" height="50" as="geometry" />
        </mxCell>
        <mxCell id="5P663EwDF2cx9lBnHZDV-30" value="" style="edgeStyle=none;shape=connector;rounded=0;orthogonalLoop=1;jettySize=auto;html=1;strokeColor=default;align=center;verticalAlign=middle;fontFamily=Helvetica;fontSize=11;fontColor=default;labelBackgroundColor=default;endArrow=none;endFill=0;" parent="1" source="5P663EwDF2cx9lBnHZDV-19" target="5P663EwDF2cx9lBnHZDV-29" edge="1">
          <mxGeometry relative="1" as="geometry">
            <mxPoint x="596.75" y="559.6700000000001" as="sourcePoint" />
            <mxPoint x="447.74999999999994" y="672.6700000000001" as="targetPoint" />
          </mxGeometry>
        </mxCell>
        <mxCell id="5P663EwDF2cx9lBnHZDV-32" value="1" style="edgeLabel;html=1;align=center;verticalAlign=middle;resizable=0;points=[];fontFamily=Helvetica;fontSize=11;fontColor=default;labelBackgroundColor=default;" parent="5P663EwDF2cx9lBnHZDV-30" vertex="1" connectable="0">
          <mxGeometry x="-0.8188" y="1" relative="1" as="geometry">
            <mxPoint as="offset" />
          </mxGeometry>
        </mxCell>
        <mxCell id="5P663EwDF2cx9lBnHZDV-29" value="In" style="rhombus;whiteSpace=wrap;html=1;fontFamily=Helvetica;fontSize=11;fontColor=default;labelBackgroundColor=default;" parent="1" vertex="1">
          <mxGeometry x="209.74999999999994" y="669.6700000000001" width="50" height="50" as="geometry" />
        </mxCell>
        <mxCell id="uetQmwVORCMHqKW5TT_V-13" style="edgeStyle=none;shape=connector;rounded=0;orthogonalLoop=1;jettySize=auto;html=1;strokeColor=default;align=center;verticalAlign=middle;fontFamily=Helvetica;fontSize=11;fontColor=default;labelBackgroundColor=default;endArrow=none;endFill=0;" parent="1" source="uetQmwVORCMHqKW5TT_V-1" target="uetQmwVORCMHqKW5TT_V-11" edge="1">
          <mxGeometry relative="1" as="geometry" />
        </mxCell>
        <mxCell id="uetQmwVORCMHqKW5TT_V-1" value="&lt;span style=&quot;font-size: 12px; background-color: rgb(251, 251, 251);&quot;&gt;Employee role&lt;/span&gt;" style="rounded=1;whiteSpace=wrap;html=1;fontFamily=Helvetica;fontSize=11;fontColor=default;labelBackgroundColor=default;" parent="1" vertex="1">
          <mxGeometry x="585.25" y="90" width="100" height="50" as="geometry" />
        </mxCell>
        <mxCell id="uetQmwVORCMHqKW5TT_V-11" value="Role name" style="ellipse;whiteSpace=wrap;html=1;fontStyle=0" parent="1" vertex="1">
          <mxGeometry x="692.38" y="98.75" width="90" height="50" as="geometry" />
        </mxCell>
        <mxCell id="uetQmwVORCMHqKW5TT_V-17" style="edgeStyle=none;shape=connector;rounded=0;orthogonalLoop=1;jettySize=auto;html=1;strokeColor=default;align=center;verticalAlign=middle;fontFamily=Helvetica;fontSize=11;fontColor=default;labelBackgroundColor=default;endArrow=none;endFill=0;" parent="1" source="uetQmwVORCMHqKW5TT_V-16" target="uetQmwVORCMHqKW5TT_V-1" edge="1">
          <mxGeometry relative="1" as="geometry" />
        </mxCell>
        <mxCell id="uetQmwVORCMHqKW5TT_V-16" value="Employee role id" style="ellipse;whiteSpace=wrap;html=1;fontStyle=5" parent="1" vertex="1">
          <mxGeometry x="487.63" y="98.75" width="90" height="50" as="geometry" />
        </mxCell>
        <mxCell id="uetQmwVORCMHqKW5TT_V-21" style="edgeStyle=none;shape=connector;rounded=0;orthogonalLoop=1;jettySize=auto;html=1;strokeColor=default;align=center;verticalAlign=middle;fontFamily=Helvetica;fontSize=11;fontColor=default;labelBackgroundColor=default;endArrow=none;endFill=0;" parent="1" source="uetQmwVORCMHqKW5TT_V-20" target="uetQmwVORCMHqKW5TT_V-1" edge="1">
          <mxGeometry relative="1" as="geometry" />
        </mxCell>
        <mxCell id="uetQmwVORCMHqKW5TT_V-20" value="Role description" style="ellipse;whiteSpace=wrap;html=1;fontStyle=0" parent="1" vertex="1">
          <mxGeometry x="652.38" y="40" width="90" height="50" as="geometry" />
        </mxCell>
        <mxCell id="uetQmwVORCMHqKW5TT_V-23" style="edgeStyle=none;shape=connector;rounded=0;orthogonalLoop=1;jettySize=auto;html=1;strokeColor=default;align=center;verticalAlign=middle;fontFamily=Helvetica;fontSize=11;fontColor=default;labelBackgroundColor=default;endArrow=none;endFill=0;" parent="1" source="uetQmwVORCMHqKW5TT_V-22" target="O5-Aam5vRArmxlNxaEpb-85" edge="1">
          <mxGeometry relative="1" as="geometry" />
        </mxCell>
        <mxCell id="uetQmwVORCMHqKW5TT_V-22" value="&lt;span style=&quot;&quot;&gt;Working history Id&lt;/span&gt;" style="ellipse;whiteSpace=wrap;html=1;fontStyle=4" parent="1" vertex="1">
          <mxGeometry x="530" y="622.1700000000001" width="90" height="50" as="geometry" />
        </mxCell>
        <mxCell id="uetQmwVORCMHqKW5TT_V-25" style="edgeStyle=none;shape=connector;rounded=0;orthogonalLoop=1;jettySize=auto;html=1;strokeColor=default;align=center;verticalAlign=middle;fontFamily=Helvetica;fontSize=11;fontColor=default;labelBackgroundColor=default;endArrow=none;endFill=0;" parent="1" source="uetQmwVORCMHqKW5TT_V-24" target="O5-Aam5vRArmxlNxaEpb-410" edge="1">
          <mxGeometry relative="1" as="geometry" />
        </mxCell>
        <mxCell id="uetQmwVORCMHqKW5TT_V-24" value="Reason" style="ellipse;whiteSpace=wrap;html=1;fontStyle=0" parent="1" vertex="1">
          <mxGeometry x="640" y="423.51" width="90" height="50" as="geometry" />
        </mxCell>
        <mxCell id="uetQmwVORCMHqKW5TT_V-26" value="Description" style="ellipse;whiteSpace=wrap;html=1;fontStyle=0" parent="1" vertex="1">
          <mxGeometry x="1560" y="310" width="90" height="50" as="geometry" />
        </mxCell>
        <mxCell id="uetQmwVORCMHqKW5TT_V-29" style="edgeStyle=none;shape=connector;rounded=0;orthogonalLoop=1;jettySize=auto;html=1;strokeColor=default;align=center;verticalAlign=middle;fontFamily=Helvetica;fontSize=11;fontColor=default;labelBackgroundColor=default;endArrow=none;endFill=0;" parent="1" source="uetQmwVORCMHqKW5TT_V-28" target="O5-Aam5vRArmxlNxaEpb-359" edge="1">
          <mxGeometry relative="1" as="geometry" />
        </mxCell>
        <mxCell id="uetQmwVORCMHqKW5TT_V-28" value="&lt;span style=&quot;font-size: 11px; background-color: rgb(255, 255, 255);&quot;&gt;Shift history&amp;nbsp;&lt;/span&gt;Id" style="ellipse;whiteSpace=wrap;html=1;fontStyle=4" parent="1" vertex="1">
          <mxGeometry x="1069.62" y="440.00000000000006" width="90" height="50" as="geometry" />
        </mxCell>
        <mxCell id="uetQmwVORCMHqKW5TT_V-34" style="edgeStyle=none;shape=connector;rounded=0;orthogonalLoop=1;jettySize=auto;html=1;strokeColor=default;align=center;verticalAlign=middle;fontFamily=Helvetica;fontSize=11;fontColor=default;labelBackgroundColor=default;endArrow=none;endFill=0;" parent="1" source="uetQmwVORCMHqKW5TT_V-49" target="uetQmwVORCMHqKW5TT_V-1" edge="1">
          <mxGeometry relative="1" as="geometry" />
        </mxCell>
        <mxCell id="uetQmwVORCMHqKW5TT_V-36" value="1" style="edgeLabel;html=1;align=center;verticalAlign=middle;resizable=0;points=[];fontFamily=Helvetica;fontSize=11;fontColor=default;labelBackgroundColor=default;" parent="uetQmwVORCMHqKW5TT_V-34" vertex="1" connectable="0">
          <mxGeometry x="0.6517" y="1" relative="1" as="geometry">
            <mxPoint x="1" y="4" as="offset" />
          </mxGeometry>
        </mxCell>
        <mxCell id="uetQmwVORCMHqKW5TT_V-30" value="Has" style="rhombus;whiteSpace=wrap;html=1;fontFamily=Helvetica;fontSize=11;fontColor=default;labelBackgroundColor=default;" parent="1" vertex="1">
          <mxGeometry x="465" y="310" width="50" height="50" as="geometry" />
        </mxCell>
        <mxCell id="uetQmwVORCMHqKW5TT_V-38" style="edgeStyle=none;shape=connector;rounded=0;orthogonalLoop=1;jettySize=auto;html=1;strokeColor=default;align=center;verticalAlign=middle;fontFamily=Helvetica;fontSize=11;fontColor=default;labelBackgroundColor=default;endArrow=none;endFill=0;" parent="1" source="uetQmwVORCMHqKW5TT_V-37" target="uetQmwVORCMHqKW5TT_V-1" edge="1">
          <mxGeometry relative="1" as="geometry" />
        </mxCell>
        <mxCell id="uetQmwVORCMHqKW5TT_V-37" value="Employee Id" style="ellipse;whiteSpace=wrap;html=1;fontStyle=4" parent="1" vertex="1">
          <mxGeometry x="529.75" y="40" width="90" height="50" as="geometry" />
        </mxCell>
        <mxCell id="uetQmwVORCMHqKW5TT_V-47" value="" style="edgeStyle=none;shape=connector;rounded=0;orthogonalLoop=1;jettySize=auto;html=1;strokeColor=default;align=center;verticalAlign=middle;fontFamily=Helvetica;fontSize=11;fontColor=default;labelBackgroundColor=default;endArrow=none;endFill=0;" parent="1" source="uetQmwVORCMHqKW5TT_V-30" target="uetQmwVORCMHqKW5TT_V-46" edge="1">
          <mxGeometry relative="1" as="geometry">
            <mxPoint x="515" y="335" as="sourcePoint" />
            <mxPoint x="867" y="335" as="targetPoint" />
          </mxGeometry>
        </mxCell>
        <mxCell id="uetQmwVORCMHqKW5TT_V-52" value="n" style="edgeLabel;html=1;align=center;verticalAlign=middle;resizable=0;points=[];fontFamily=Helvetica;fontSize=11;fontColor=default;labelBackgroundColor=default;" parent="uetQmwVORCMHqKW5TT_V-47" vertex="1" connectable="0">
          <mxGeometry x="0.6797" relative="1" as="geometry">
            <mxPoint as="offset" />
          </mxGeometry>
        </mxCell>
        <mxCell id="uetQmwVORCMHqKW5TT_V-56" style="edgeStyle=none;shape=connector;rounded=0;orthogonalLoop=1;jettySize=auto;html=1;strokeColor=default;align=center;verticalAlign=middle;fontFamily=Helvetica;fontSize=11;fontColor=default;labelBackgroundColor=default;endArrow=none;endFill=0;" parent="1" source="uetQmwVORCMHqKW5TT_V-55" target="O5-Aam5vRArmxlNxaEpb-142" edge="1">
          <mxGeometry relative="1" as="geometry" />
        </mxCell>
        <mxCell id="uetQmwVORCMHqKW5TT_V-59" value="1" style="edgeLabel;html=1;align=center;verticalAlign=middle;resizable=0;points=[];fontFamily=Helvetica;fontSize=11;fontColor=default;labelBackgroundColor=default;" parent="uetQmwVORCMHqKW5TT_V-56" vertex="1" connectable="0">
          <mxGeometry x="0.6067" relative="1" as="geometry">
            <mxPoint as="offset" />
          </mxGeometry>
        </mxCell>
        <mxCell id="uetQmwVORCMHqKW5TT_V-61" style="edgeStyle=none;shape=connector;rounded=0;orthogonalLoop=1;jettySize=auto;html=1;strokeColor=default;align=center;verticalAlign=middle;fontFamily=Helvetica;fontSize=11;fontColor=default;labelBackgroundColor=default;endArrow=none;endFill=0;" parent="1" source="uetQmwVORCMHqKW5TT_V-46" target="uetQmwVORCMHqKW5TT_V-60" edge="1">
          <mxGeometry relative="1" as="geometry" />
        </mxCell>
        <mxCell id="uetQmwVORCMHqKW5TT_V-46" value="&lt;span style=&quot;font-size: 12px; background-color: rgb(251, 251, 251);&quot;&gt;Employee-&lt;/span&gt;&lt;span style=&quot;font-size: 12px; background-color: rgb(251, 251, 251);&quot;&gt;Employee role&lt;/span&gt;" style="rounded=1;whiteSpace=wrap;html=1;fontFamily=Helvetica;fontSize=11;fontColor=default;labelBackgroundColor=default;" parent="1" vertex="1">
          <mxGeometry x="585.25" y="310" width="100" height="50" as="geometry" />
        </mxCell>
        <mxCell id="uetQmwVORCMHqKW5TT_V-50" value="" style="edgeStyle=none;shape=connector;rounded=0;orthogonalLoop=1;jettySize=auto;html=1;strokeColor=default;align=center;verticalAlign=middle;fontFamily=Helvetica;fontSize=11;fontColor=default;labelBackgroundColor=default;endArrow=none;endFill=0;" parent="1" source="uetQmwVORCMHqKW5TT_V-46" target="uetQmwVORCMHqKW5TT_V-49" edge="1">
          <mxGeometry relative="1" as="geometry">
            <mxPoint x="685" y="335" as="sourcePoint" />
            <mxPoint x="867" y="335" as="targetPoint" />
          </mxGeometry>
        </mxCell>
        <mxCell id="uetQmwVORCMHqKW5TT_V-53" value="n" style="edgeLabel;html=1;align=center;verticalAlign=middle;resizable=0;points=[];fontFamily=Helvetica;fontSize=11;fontColor=default;labelBackgroundColor=default;" parent="uetQmwVORCMHqKW5TT_V-50" vertex="1" connectable="0">
          <mxGeometry x="-0.7391" relative="1" as="geometry">
            <mxPoint y="-12" as="offset" />
          </mxGeometry>
        </mxCell>
        <mxCell id="uetQmwVORCMHqKW5TT_V-49" value="Has" style="rhombus;whiteSpace=wrap;html=1;fontFamily=Helvetica;fontSize=11;fontColor=default;labelBackgroundColor=default;" parent="1" vertex="1">
          <mxGeometry x="610" y="200" width="50" height="50" as="geometry" />
        </mxCell>
        <mxCell id="uetQmwVORCMHqKW5TT_V-57" value="" style="edgeStyle=none;shape=connector;rounded=0;orthogonalLoop=1;jettySize=auto;html=1;strokeColor=default;align=center;verticalAlign=middle;fontFamily=Helvetica;fontSize=11;fontColor=default;labelBackgroundColor=default;endArrow=none;endFill=0;" parent="1" source="uetQmwVORCMHqKW5TT_V-46" target="uetQmwVORCMHqKW5TT_V-55" edge="1">
          <mxGeometry relative="1" as="geometry">
            <mxPoint x="685" y="335" as="sourcePoint" />
            <mxPoint x="855" y="335" as="targetPoint" />
          </mxGeometry>
        </mxCell>
        <mxCell id="uetQmwVORCMHqKW5TT_V-58" value="1" style="edgeLabel;html=1;align=center;verticalAlign=middle;resizable=0;points=[];fontFamily=Helvetica;fontSize=11;fontColor=default;labelBackgroundColor=default;" parent="uetQmwVORCMHqKW5TT_V-57" vertex="1" connectable="0">
          <mxGeometry x="-0.5897" y="2" relative="1" as="geometry">
            <mxPoint as="offset" />
          </mxGeometry>
        </mxCell>
        <mxCell id="uetQmwVORCMHqKW5TT_V-55" value="Has" style="rhombus;whiteSpace=wrap;html=1;fontFamily=Helvetica;fontSize=11;fontColor=default;labelBackgroundColor=default;" parent="1" vertex="1">
          <mxGeometry x="750" y="310" width="50" height="50" as="geometry" />
        </mxCell>
        <mxCell id="uetQmwVORCMHqKW5TT_V-60" value="Employee role id" style="ellipse;whiteSpace=wrap;html=1;fontStyle=4" parent="1" vertex="1">
          <mxGeometry x="640" y="362.5" width="90" height="50" as="geometry" />
        </mxCell>
        <mxCell id="uetQmwVORCMHqKW5TT_V-63" style="edgeStyle=none;shape=connector;rounded=0;orthogonalLoop=1;jettySize=auto;html=1;strokeColor=default;align=center;verticalAlign=middle;fontFamily=Helvetica;fontSize=11;fontColor=default;labelBackgroundColor=default;endArrow=none;endFill=0;" parent="1" source="uetQmwVORCMHqKW5TT_V-62" target="uetQmwVORCMHqKW5TT_V-46" edge="1">
          <mxGeometry relative="1" as="geometry" />
        </mxCell>
        <mxCell id="uetQmwVORCMHqKW5TT_V-62" value="Employee Id" style="ellipse;whiteSpace=wrap;html=1;fontStyle=4" parent="1" vertex="1">
          <mxGeometry x="535" y="360" width="90" height="50" as="geometry" />
        </mxCell>
        <mxCell id="uetQmwVORCMHqKW5TT_V-70" value="" style="edgeStyle=none;shape=connector;rounded=0;orthogonalLoop=1;jettySize=auto;html=1;strokeColor=default;align=center;verticalAlign=middle;fontFamily=Helvetica;fontSize=11;fontColor=default;labelBackgroundColor=default;endArrow=none;endFill=0;" parent="1" source="O5-Aam5vRArmxlNxaEpb-142" target="uetQmwVORCMHqKW5TT_V-68" edge="1">
          <mxGeometry relative="1" as="geometry">
            <mxPoint x="906" y="360" as="sourcePoint" />
            <mxPoint x="914" y="532" as="targetPoint" />
          </mxGeometry>
        </mxCell>
        <mxCell id="uetQmwVORCMHqKW5TT_V-86" value="1" style="edgeLabel;html=1;align=center;verticalAlign=middle;resizable=0;points=[];fontFamily=Helvetica;fontSize=11;fontColor=default;labelBackgroundColor=default;" parent="uetQmwVORCMHqKW5TT_V-70" vertex="1" connectable="0">
          <mxGeometry x="-0.4388" relative="1" as="geometry">
            <mxPoint as="offset" />
          </mxGeometry>
        </mxCell>
        <mxCell id="uetQmwVORCMHqKW5TT_V-68" value="Has" style="rhombus;whiteSpace=wrap;html=1;fontFamily=Helvetica;fontSize=11;fontColor=default;labelBackgroundColor=default;" parent="1" vertex="1">
          <mxGeometry x="880" y="397.49999999999994" width="50" height="50" as="geometry" />
        </mxCell>
        <mxCell id="uetQmwVORCMHqKW5TT_V-73" value="" style="edgeStyle=none;shape=connector;rounded=0;orthogonalLoop=1;jettySize=auto;html=1;strokeColor=default;align=center;verticalAlign=middle;fontFamily=Helvetica;fontSize=11;fontColor=default;labelBackgroundColor=default;endArrow=none;endFill=0;" parent="1" source="uetQmwVORCMHqKW5TT_V-68" target="uetQmwVORCMHqKW5TT_V-72" edge="1">
          <mxGeometry relative="1" as="geometry">
            <mxPoint x="905" y="471" as="sourcePoint" />
            <mxPoint x="905" y="671" as="targetPoint" />
          </mxGeometry>
        </mxCell>
        <mxCell id="uetQmwVORCMHqKW5TT_V-87" value="n" style="edgeLabel;html=1;align=center;verticalAlign=middle;resizable=0;points=[];fontFamily=Helvetica;fontSize=11;fontColor=default;labelBackgroundColor=default;" parent="uetQmwVORCMHqKW5TT_V-73" vertex="1" connectable="0">
          <mxGeometry x="0.1492" y="1" relative="1" as="geometry">
            <mxPoint as="offset" />
          </mxGeometry>
        </mxCell>
        <mxCell id="uetQmwVORCMHqKW5TT_V-91" style="edgeStyle=none;shape=connector;rounded=0;orthogonalLoop=1;jettySize=auto;html=1;strokeColor=default;align=center;verticalAlign=middle;fontFamily=Helvetica;fontSize=11;fontColor=default;labelBackgroundColor=default;endArrow=none;endFill=0;" parent="1" source="uetQmwVORCMHqKW5TT_V-72" target="uetQmwVORCMHqKW5TT_V-90" edge="1">
          <mxGeometry relative="1" as="geometry" />
        </mxCell>
        <mxCell id="uetQmwVORCMHqKW5TT_V-72" value="Working History" style="rounded=1;whiteSpace=wrap;html=1;fontFamily=Helvetica;fontSize=11;fontColor=default;labelBackgroundColor=default;" parent="1" vertex="1">
          <mxGeometry x="855" y="480" width="100" height="50" as="geometry" />
        </mxCell>
        <mxCell id="uetQmwVORCMHqKW5TT_V-75" value="" style="edgeStyle=none;shape=connector;rounded=0;orthogonalLoop=1;jettySize=auto;html=1;strokeColor=default;align=center;verticalAlign=middle;fontFamily=Helvetica;fontSize=11;fontColor=default;labelBackgroundColor=default;endArrow=none;endFill=0;" parent="1" source="uetQmwVORCMHqKW5TT_V-72" target="uetQmwVORCMHqKW5TT_V-74" edge="1">
          <mxGeometry relative="1" as="geometry">
            <mxPoint x="905" y="550" as="sourcePoint" />
            <mxPoint x="905" y="671" as="targetPoint" />
          </mxGeometry>
        </mxCell>
        <mxCell id="uetQmwVORCMHqKW5TT_V-92" value="1" style="edgeLabel;html=1;align=center;verticalAlign=middle;resizable=0;points=[];fontFamily=Helvetica;fontSize=11;fontColor=default;labelBackgroundColor=default;" parent="uetQmwVORCMHqKW5TT_V-75" vertex="1" connectable="0">
          <mxGeometry x="-0.2833" relative="1" as="geometry">
            <mxPoint as="offset" />
          </mxGeometry>
        </mxCell>
        <mxCell id="uetQmwVORCMHqKW5TT_V-77" style="edgeStyle=none;shape=connector;rounded=0;orthogonalLoop=1;jettySize=auto;html=1;strokeColor=default;align=center;verticalAlign=middle;fontFamily=Helvetica;fontSize=11;fontColor=default;labelBackgroundColor=default;endArrow=none;endFill=0;" parent="1" source="uetQmwVORCMHqKW5TT_V-74" target="uetQmwVORCMHqKW5TT_V-76" edge="1">
          <mxGeometry relative="1" as="geometry" />
        </mxCell>
        <mxCell id="uetQmwVORCMHqKW5TT_V-93" value="n" style="edgeLabel;html=1;align=center;verticalAlign=middle;resizable=0;points=[];fontFamily=Helvetica;fontSize=11;fontColor=default;labelBackgroundColor=default;" parent="uetQmwVORCMHqKW5TT_V-77" vertex="1" connectable="0">
          <mxGeometry x="0.2749" y="-1" relative="1" as="geometry">
            <mxPoint as="offset" />
          </mxGeometry>
        </mxCell>
        <mxCell id="uetQmwVORCMHqKW5TT_V-74" value="Has" style="rhombus;whiteSpace=wrap;html=1;fontFamily=Helvetica;fontSize=11;fontColor=default;labelBackgroundColor=default;" parent="1" vertex="1">
          <mxGeometry x="880" y="571.25" width="50" height="50" as="geometry" />
        </mxCell>
        <mxCell id="uetQmwVORCMHqKW5TT_V-78" style="edgeStyle=none;shape=connector;rounded=0;orthogonalLoop=1;jettySize=auto;html=1;strokeColor=default;align=center;verticalAlign=middle;fontFamily=Helvetica;fontSize=11;fontColor=default;labelBackgroundColor=default;endArrow=none;endFill=0;" parent="1" source="uetQmwVORCMHqKW5TT_V-79" target="O5-Aam5vRArmxlNxaEpb-288" edge="1">
          <mxGeometry relative="1" as="geometry" />
        </mxCell>
        <mxCell id="uetQmwVORCMHqKW5TT_V-99" value="n" style="edgeLabel;html=1;align=center;verticalAlign=middle;resizable=0;points=[];fontFamily=Helvetica;fontSize=11;fontColor=default;labelBackgroundColor=default;" parent="uetQmwVORCMHqKW5TT_V-78" vertex="1" connectable="0">
          <mxGeometry x="0.5397" relative="1" as="geometry">
            <mxPoint as="offset" />
          </mxGeometry>
        </mxCell>
        <mxCell id="uetQmwVORCMHqKW5TT_V-97" style="edgeStyle=none;shape=connector;rounded=0;orthogonalLoop=1;jettySize=auto;html=1;strokeColor=default;align=center;verticalAlign=middle;fontFamily=Helvetica;fontSize=11;fontColor=default;labelBackgroundColor=default;endArrow=none;endFill=0;" parent="1" source="uetQmwVORCMHqKW5TT_V-76" target="uetQmwVORCMHqKW5TT_V-96" edge="1">
          <mxGeometry relative="1" as="geometry" />
        </mxCell>
        <mxCell id="uetQmwVORCMHqKW5TT_V-76" value="Working Day History" style="rounded=1;whiteSpace=wrap;html=1;fontFamily=Helvetica;fontSize=11;fontColor=default;labelBackgroundColor=default;" parent="1" vertex="1">
          <mxGeometry x="855" y="672.1700000000001" width="100" height="50" as="geometry" />
        </mxCell>
        <mxCell id="uetQmwVORCMHqKW5TT_V-80" value="" style="edgeStyle=none;shape=connector;rounded=0;orthogonalLoop=1;jettySize=auto;html=1;strokeColor=default;align=center;verticalAlign=middle;fontFamily=Helvetica;fontSize=11;fontColor=default;labelBackgroundColor=default;endArrow=none;endFill=0;" parent="1" source="uetQmwVORCMHqKW5TT_V-76" target="uetQmwVORCMHqKW5TT_V-79" edge="1">
          <mxGeometry relative="1" as="geometry">
            <mxPoint x="955" y="694" as="sourcePoint" />
            <mxPoint x="1154" y="694" as="targetPoint" />
          </mxGeometry>
        </mxCell>
        <mxCell id="uetQmwVORCMHqKW5TT_V-98" value="1" style="edgeLabel;html=1;align=center;verticalAlign=middle;resizable=0;points=[];fontFamily=Helvetica;fontSize=11;fontColor=default;labelBackgroundColor=default;" parent="uetQmwVORCMHqKW5TT_V-80" vertex="1" connectable="0">
          <mxGeometry x="-0.6946" relative="1" as="geometry">
            <mxPoint as="offset" />
          </mxGeometry>
        </mxCell>
        <mxCell id="uetQmwVORCMHqKW5TT_V-79" value="Has" style="rhombus;whiteSpace=wrap;html=1;fontFamily=Helvetica;fontSize=11;fontColor=default;labelBackgroundColor=default;" parent="1" vertex="1">
          <mxGeometry x="1034.25" y="672.4999999999999" width="50" height="50" as="geometry" />
        </mxCell>
        <mxCell id="uetQmwVORCMHqKW5TT_V-81" style="edgeStyle=none;shape=connector;rounded=0;orthogonalLoop=1;jettySize=auto;html=1;exitX=1;exitY=1;exitDx=0;exitDy=0;strokeColor=default;align=center;verticalAlign=middle;fontFamily=Helvetica;fontSize=11;fontColor=default;labelBackgroundColor=default;endArrow=none;endFill=0;" parent="1" source="O5-Aam5vRArmxlNxaEpb-357" target="O5-Aam5vRArmxlNxaEpb-357" edge="1">
          <mxGeometry relative="1" as="geometry" />
        </mxCell>
        <mxCell id="uetQmwVORCMHqKW5TT_V-85" value="" style="edgeStyle=none;shape=connector;rounded=0;orthogonalLoop=1;jettySize=auto;html=1;strokeColor=default;align=center;verticalAlign=middle;fontFamily=Helvetica;fontSize=11;fontColor=default;labelBackgroundColor=default;endArrow=none;endFill=0;" parent="1" source="O5-Aam5vRArmxlNxaEpb-85" target="uetQmwVORCMHqKW5TT_V-84" edge="1">
          <mxGeometry relative="1" as="geometry">
            <mxPoint x="679" y="670" as="sourcePoint" />
            <mxPoint x="871" y="530" as="targetPoint" />
          </mxGeometry>
        </mxCell>
        <mxCell id="uetQmwVORCMHqKW5TT_V-107" value="1" style="edgeLabel;html=1;align=center;verticalAlign=middle;resizable=0;points=[];fontFamily=Helvetica;fontSize=11;fontColor=default;labelBackgroundColor=default;" parent="uetQmwVORCMHqKW5TT_V-85" vertex="1" connectable="0">
          <mxGeometry x="-0.6247" relative="1" as="geometry">
            <mxPoint as="offset" />
          </mxGeometry>
        </mxCell>
        <mxCell id="uetQmwVORCMHqKW5TT_V-84" value="Has" style="rhombus;whiteSpace=wrap;html=1;fontFamily=Helvetica;fontSize=11;fontColor=default;labelBackgroundColor=default;" parent="1" vertex="1">
          <mxGeometry x="750" y="578.4199999999998" width="50" height="50" as="geometry" />
        </mxCell>
        <mxCell id="uetQmwVORCMHqKW5TT_V-89" style="edgeStyle=none;shape=connector;rounded=0;orthogonalLoop=1;jettySize=auto;html=1;strokeColor=default;align=center;verticalAlign=middle;fontFamily=Helvetica;fontSize=11;fontColor=default;labelBackgroundColor=default;endArrow=none;endFill=0;" parent="1" source="uetQmwVORCMHqKW5TT_V-88" target="uetQmwVORCMHqKW5TT_V-72" edge="1">
          <mxGeometry relative="1" as="geometry" />
        </mxCell>
        <mxCell id="uetQmwVORCMHqKW5TT_V-88" value="Work schedule Id" style="ellipse;whiteSpace=wrap;html=1;fontStyle=4" parent="1" vertex="1">
          <mxGeometry x="955" y="440.00000000000006" width="90" height="50" as="geometry" />
        </mxCell>
        <mxCell id="uetQmwVORCMHqKW5TT_V-90" value="Working history Id" style="ellipse;whiteSpace=wrap;html=1;fontStyle=5" parent="1" vertex="1">
          <mxGeometry x="960" y="500" width="90" height="50" as="geometry" />
        </mxCell>
        <mxCell id="uetQmwVORCMHqKW5TT_V-95" style="edgeStyle=none;shape=connector;rounded=0;orthogonalLoop=1;jettySize=auto;html=1;strokeColor=default;align=center;verticalAlign=middle;fontFamily=Helvetica;fontSize=11;fontColor=default;labelBackgroundColor=default;endArrow=none;endFill=0;" parent="1" source="uetQmwVORCMHqKW5TT_V-94" target="uetQmwVORCMHqKW5TT_V-76" edge="1">
          <mxGeometry relative="1" as="geometry" />
        </mxCell>
        <mxCell id="uetQmwVORCMHqKW5TT_V-94" value="Working history Id" style="ellipse;whiteSpace=wrap;html=1;fontStyle=4" parent="1" vertex="1">
          <mxGeometry x="920" y="619.67" width="90" height="50" as="geometry" />
        </mxCell>
        <mxCell id="uetQmwVORCMHqKW5TT_V-96" value="&lt;span style=&quot;font-size: 11px; background-color: rgb(255, 255, 255);&quot;&gt;Working Day History&lt;/span&gt;&amp;nbsp;Id" style="ellipse;whiteSpace=wrap;html=1;fontStyle=5" parent="1" vertex="1">
          <mxGeometry x="800" y="621.25" width="90" height="50" as="geometry" />
        </mxCell>
        <mxCell id="uetQmwVORCMHqKW5TT_V-105" style="edgeStyle=none;shape=connector;rounded=0;orthogonalLoop=1;jettySize=auto;html=1;strokeColor=default;align=center;verticalAlign=middle;fontFamily=Helvetica;fontSize=11;fontColor=default;labelBackgroundColor=default;endArrow=none;endFill=0;" parent="1" source="uetQmwVORCMHqKW5TT_V-104" target="O5-Aam5vRArmxlNxaEpb-410" edge="1">
          <mxGeometry relative="1" as="geometry" />
        </mxCell>
        <mxCell id="uetQmwVORCMHqKW5TT_V-104" value="Working history Id" style="ellipse;whiteSpace=wrap;html=1;fontStyle=4" parent="1" vertex="1">
          <mxGeometry x="692.38" y="534.67" width="90" height="50" as="geometry" />
        </mxCell>
        <mxCell id="uetQmwVORCMHqKW5TT_V-113" style="edgeStyle=none;shape=connector;rounded=0;orthogonalLoop=1;jettySize=auto;html=1;strokeColor=default;align=center;verticalAlign=middle;fontFamily=Helvetica;fontSize=11;fontColor=default;labelBackgroundColor=default;endArrow=none;endFill=0;" parent="1" source="uetQmwVORCMHqKW5TT_V-112" target="uetQmwVORCMHqKW5TT_V-76" edge="1">
          <mxGeometry relative="1" as="geometry" />
        </mxCell>
        <mxCell id="uetQmwVORCMHqKW5TT_V-112" value="Weekday" style="ellipse;whiteSpace=wrap;html=1;fontStyle=0" parent="1" vertex="1">
          <mxGeometry x="860" y="730.0000000000001" width="90" height="50" as="geometry" />
        </mxCell>
        <mxCell id="uetQmwVORCMHqKW5TT_V-115" style="edgeStyle=none;shape=connector;rounded=0;orthogonalLoop=1;jettySize=auto;html=1;strokeColor=default;align=center;verticalAlign=middle;fontFamily=Helvetica;fontSize=11;fontColor=default;labelBackgroundColor=default;endArrow=none;endFill=0;" parent="1" source="uetQmwVORCMHqKW5TT_V-114" target="O5-Aam5vRArmxlNxaEpb-288" edge="1">
          <mxGeometry relative="1" as="geometry" />
        </mxCell>
        <mxCell id="uetQmwVORCMHqKW5TT_V-114" value="Base start time" style="ellipse;whiteSpace=wrap;html=1;fontStyle=0" parent="1" vertex="1">
          <mxGeometry x="1235" y="572.1700000000001" width="90" height="50" as="geometry" />
        </mxCell>
        <mxCell id="uetQmwVORCMHqKW5TT_V-117" style="edgeStyle=none;shape=connector;rounded=0;orthogonalLoop=1;jettySize=auto;html=1;strokeColor=default;align=center;verticalAlign=middle;fontFamily=Helvetica;fontSize=11;fontColor=default;labelBackgroundColor=default;endArrow=none;endFill=0;" parent="1" source="uetQmwVORCMHqKW5TT_V-116" target="O5-Aam5vRArmxlNxaEpb-288" edge="1">
          <mxGeometry relative="1" as="geometry" />
        </mxCell>
        <mxCell id="uetQmwVORCMHqKW5TT_V-116" value="Base end time" style="ellipse;whiteSpace=wrap;html=1;fontStyle=0" parent="1" vertex="1">
          <mxGeometry x="1259.62" y="628.4200000000001" width="90" height="50" as="geometry" />
        </mxCell>
        <mxCell id="uetQmwVORCMHqKW5TT_V-119" style="edgeStyle=none;shape=connector;rounded=0;orthogonalLoop=1;jettySize=auto;html=1;strokeColor=default;align=center;verticalAlign=middle;fontFamily=Helvetica;fontSize=11;fontColor=default;labelBackgroundColor=default;endArrow=none;endFill=0;" parent="1" source="uetQmwVORCMHqKW5TT_V-118" target="uetQmwVORCMHqKW5TT_V-72" edge="1">
          <mxGeometry relative="1" as="geometry" />
        </mxCell>
        <mxCell id="uetQmwVORCMHqKW5TT_V-118" value="From date" style="ellipse;whiteSpace=wrap;html=1;fontStyle=0" parent="1" vertex="1">
          <mxGeometry x="800" y="373.51" width="90" height="50" as="geometry" />
        </mxCell>
        <mxCell id="uetQmwVORCMHqKW5TT_V-121" style="edgeStyle=none;shape=connector;rounded=0;orthogonalLoop=1;jettySize=auto;html=1;strokeColor=default;align=center;verticalAlign=middle;fontFamily=Helvetica;fontSize=11;fontColor=default;labelBackgroundColor=default;endArrow=none;endFill=0;" parent="1" source="uetQmwVORCMHqKW5TT_V-120" target="uetQmwVORCMHqKW5TT_V-72" edge="1">
          <mxGeometry relative="1" as="geometry" />
        </mxCell>
        <mxCell id="uetQmwVORCMHqKW5TT_V-120" value="To date" style="ellipse;whiteSpace=wrap;html=1;fontStyle=0" parent="1" vertex="1">
          <mxGeometry x="775.25" y="430" width="90" height="50" as="geometry" />
        </mxCell>
        <mxCell id="uetQmwVORCMHqKW5TT_V-132" style="edgeStyle=none;shape=connector;rounded=0;orthogonalLoop=1;jettySize=auto;html=1;strokeColor=default;align=center;verticalAlign=middle;fontFamily=Helvetica;fontSize=11;fontColor=default;labelBackgroundColor=default;endArrow=none;endFill=0;" parent="1" source="uetQmwVORCMHqKW5TT_V-128" target="O5-Aam5vRArmxlNxaEpb-142" edge="1">
          <mxGeometry relative="1" as="geometry" />
        </mxCell>
        <mxCell id="uetQmwVORCMHqKW5TT_V-128" value="Work schedule Id" style="ellipse;whiteSpace=wrap;html=1;fontStyle=4" parent="1" vertex="1">
          <mxGeometry x="810" y="260.00000000000006" width="90" height="50" as="geometry" />
        </mxCell>
        <mxCell id="uetQmwVORCMHqKW5TT_V-131" style="edgeStyle=none;shape=connector;rounded=0;orthogonalLoop=1;jettySize=auto;html=1;strokeColor=default;align=center;verticalAlign=middle;fontFamily=Helvetica;fontSize=11;fontColor=default;labelBackgroundColor=default;endArrow=none;endFill=0;" parent="1" source="uetQmwVORCMHqKW5TT_V-130" target="uetQmwVORCMHqKW5TT_V-46" edge="1">
          <mxGeometry relative="1" as="geometry" />
        </mxCell>
        <mxCell id="uetQmwVORCMHqKW5TT_V-130" value="&lt;span style=&quot;&quot;&gt;Employee-&lt;/span&gt;&lt;span style=&quot;&quot;&gt;Employee role Id&lt;/span&gt;" style="ellipse;whiteSpace=wrap;html=1;fontStyle=1" parent="1" vertex="1">
          <mxGeometry x="520" y="260" width="90" height="50" as="geometry" />
        </mxCell>
      </root>
    </mxGraphModel>
  </diagram>
</mxfile>
